<svg id="Groupe_786" data-name="Groupe 786" xmlns="http://www.w3.org/2000/svg" xmlns:xlink="http://www.w3.org/1999/xlink" width="359" height="164.4" viewBox="0 0 359 164.4">
  <defs>
    <clipPath id="clip-path">
      <rect id="Rectangle_482" data-name="Rectangle 482" width="359" height="164.4" fill="none"/>
    </clipPath>
  </defs>
  <path id="Tracé_1679" data-name="Tracé 1679" d="M0,215.058v18.786H15.529V230.9H3.3V215.058Z" transform="translate(0 -95.766)"/>
  <path id="Tracé_1680" data-name="Tracé 1680" d="M139.973,233.082l10.84-19.735,8.567,13.272,8.72-13.272,10.576,19.735h-3.71L168.1,219.7l-8.72,12.537L150.813,219.7,143.8,233.082Z" transform="translate(-62.33 -95.004)"/>
  <path id="Tracé_1681" data-name="Tracé 1681" d="M289.545,233.082l10.84-19.735,8.567,13.272,8.72-13.272,10.576,19.735h-3.71L317.673,219.7l-8.72,12.537L300.385,219.7l-7.018,13.384Z" transform="translate(-128.935 -95.004)"/>
  <g id="Groupe_781" data-name="Groupe 781">
    <g id="Groupe_780" data-name="Groupe 780" clip-path="url(#clip-path)">
      <path id="Tracé_1682" data-name="Tracé 1682" d="M455.579,234.409c7.091,0,11.156-3.209,11.156-7.723V215.057h-3.3v11.211c0,2.917-2.432,4.8-7.853,4.8s-7.848-1.879-7.848-4.8V215.057h-3.3v11.629c0,4.514,4.065,7.723,11.151,7.723" transform="translate(-197.905 -95.765)"/>
      <path id="Tracé_1683" data-name="Tracé 1683" d="M511.914,215.058v18.786h3.3V219.669l14.231,14.175h3.121V215.058h-3.3V229.3l-13.8-14.242Z" transform="translate(-227.956 -95.766)"/>
      <rect id="Rectangle_481" data-name="Rectangle 481" width="3.301" height="18.786" transform="translate(319.875 119.292)"/>
      <path id="Tracé_1684" data-name="Tracé 1684" d="M397.469,216.5a13.172,13.172,0,0,0-8.213-2.544,13.366,13.366,0,0,0-8.241,2.543,9.188,9.188,0,0,0-.052,14.921,14.9,14.9,0,0,0,16.528.028,9.225,9.225,0,0,0-.023-14.947m-1.984,12.412a9.557,9.557,0,0,1-6.229,1.916,9.682,9.682,0,0,1-6.269-1.9,6.381,6.381,0,0,1,.052-9.9,9.561,9.561,0,0,1,6.217-1.955,9.676,9.676,0,0,1,5.837,1.714,6.374,6.374,0,0,1,.392,10.131" transform="translate(-167.952 -95.276)"/>
      <path id="Tracé_1685" data-name="Tracé 1685" d="M248.641,233.144h3.826l-12.335-19.658L227.8,233.144h3.826l2.138-3.547H246.5Zm-13.107-6.489,4.6-7.628,4.6,7.628Z" transform="translate(-101.438 -95.066)"/>
      <path id="Tracé_1686" data-name="Tracé 1686" d="M623.567,233.144h3.826l-12.335-19.658-12.335,19.658h3.826l2.138-3.547H621.43Zm-13.107-6.489,4.6-7.628,4.6,7.628Z" transform="translate(-268.394 -95.066)"/>
      <path id="Tracé_1687" data-name="Tracé 1687" d="M65.684,233.144h3.826L57.175,213.486,44.84,233.144h3.826L50.8,229.6H63.546Zm-13.107-6.489,4.6-7.628,4.6,7.628Z" transform="translate(-19.967 -95.066)"/>
    </g>
  </g>
  <g id="Groupe_783" data-name="Groupe 783">
    <g id="Groupe_782" data-name="Groupe 782" clip-path="url(#clip-path)">
      <path id="Tracé_1688" data-name="Tracé 1688" d="M278.091,22.459a3.729,3.729,0,0,1-.864-3.226,4.343,4.343,0,0,1,2.417,1.373c-.865-.895-2.133-2.209-1.922-3.95a2.642,2.642,0,0,1,2.164.911,4.36,4.36,0,0,1-1.42-3.385,2.6,2.6,0,0,1,2.076.829,3.577,3.577,0,0,1-1.143-3.466c1.067.04,1.789.414,1.831.937a4.178,4.178,0,0,1-.567-3.287,1.978,1.978,0,0,1,1.487.962c-.288-1.319.068-2.635.981-3.013a2.708,2.708,0,0,1,.8,3.28,1.988,1.988,0,0,1,1.7-.651,3.838,3.838,0,0,1-.838,3.084c.121-.479,1.133-.556,2.015-.4a3.342,3.342,0,0,1-1.474,3.2,3.441,3.441,0,0,1,2.522-.291,3.68,3.68,0,0,1-1.995,3.231,3.652,3.652,0,0,1,2.5-.155,5.111,5.111,0,0,1-1.705,3.234A2.789,2.789,0,0,1,288.8,21.4a3.682,3.682,0,0,1-2.107,3.294Z" transform="translate(-123.416 -3.182)" fill="#606a74"/>
      <path id="Tracé_1689" data-name="Tracé 1689" d="M359.918,22.459a3.729,3.729,0,0,0,.864-3.226,4.338,4.338,0,0,0-2.417,1.373c.864-.895,2.133-2.209,1.921-3.95a2.644,2.644,0,0,0-2.164.911,4.361,4.361,0,0,0,1.421-3.385,2.606,2.606,0,0,0-2.076.829,3.579,3.579,0,0,0,1.143-3.466c-1.068.04-1.79.414-1.832.937a4.184,4.184,0,0,0,.57-3.287,1.976,1.976,0,0,0-1.488.962c.287-1.319-.069-2.635-.982-3.013a2.709,2.709,0,0,0-.8,3.28,1.986,1.986,0,0,0-1.7-.651,3.832,3.832,0,0,0,.84,3.084c-.123-.479-1.134-.556-2.016-.4a3.34,3.34,0,0,0,1.474,3.2,3.44,3.44,0,0,0-2.522-.291,3.679,3.679,0,0,0,1.994,3.231,3.652,3.652,0,0,0-2.5-.155,5.107,5.107,0,0,0,1.705,3.234,2.786,2.786,0,0,0-2.152-.275,3.679,3.679,0,0,0,2.107,3.294Z" transform="translate(-155.504 -3.182)" fill="#606a74"/>
      <path id="Tracé_1690" data-name="Tracé 1690" d="M301.309,27.021c-.75-.2-1.868-2.63-1.513-4.064a2.436,2.436,0,0,1,1.8,1.209,4.887,4.887,0,0,1-.932-4.185c.709.208,1.368.356,1.644,1.092-.277-.559-1.548-2.25-.9-3.909a2.255,2.255,0,0,1,1.808,1.06,4.52,4.52,0,0,1-.57-3.879,2.414,2.414,0,0,1,1.628,1.284c-.408-.809-1.058-2.567-.217-3.767a2.386,2.386,0,0,1,1.354,1.417,2.847,2.847,0,0,1,.971-2.832,3.24,3.24,0,0,1,.794,2.922,2,2,0,0,1,1.381-1.255c.725,1.288-.213,3.119-.486,3.739a2.246,2.246,0,0,1,1.755-1.191c.465,1.35-.454,3-.9,3.681a2.492,2.492,0,0,1,1.807-.869,4.386,4.386,0,0,1-1.087,3.691,3.5,3.5,0,0,1,1.738-1.043c.542,1.534-.326,3.431-.839,4.232a3.9,3.9,0,0,1,1.752-1.434c.493,1.414-.419,4.386-1.685,4.935Z" transform="translate(-133.47 -4.652)" fill="#606a74"/>
      <path id="Tracé_1691" data-name="Tracé 1691" d="M335.845,27.021c.75-.2,1.868-2.63,1.513-4.064a2.434,2.434,0,0,0-1.8,1.209,4.89,4.89,0,0,0,.932-4.185c-.708.208-1.369.356-1.644,1.092.276-.559,1.548-2.25.9-3.909a2.254,2.254,0,0,0-1.807,1.06,4.52,4.52,0,0,0,.569-3.879,2.415,2.415,0,0,0-1.626,1.284c.407-.809,1.058-2.567.217-3.767a2.38,2.38,0,0,0-1.354,1.417,2.85,2.85,0,0,0-.972-2.832,3.24,3.24,0,0,0-.793,2.922,2,2,0,0,0-1.383-1.255c-.722,1.288.215,3.119.489,3.739a2.251,2.251,0,0,0-1.756-1.191c-.464,1.35.454,3,.9,3.681a2.488,2.488,0,0,0-1.806-.869,4.394,4.394,0,0,0,1.087,3.691,3.49,3.49,0,0,0-1.737-1.043c-.543,1.534.327,3.431.84,4.232-.445-.457-.883-1.2-1.753-1.434-.492,1.414.418,4.386,1.685,4.935Z" transform="translate(-144.601 -4.652)" fill="#606a74"/>
      <path id="Tracé_1692" data-name="Tracé 1692" d="M318.2,102.951a6.625,6.625,0,0,0-6.713,6.332c0,2.9.817,4.064,3.2,6.012,1.124.856,3.512,2.456,3.512,4.055,0-1.6,2.39-3.2,3.511-4.055,2.386-1.948,3.2-3.116,3.2-6.012a6.627,6.627,0,0,0-6.716-6.332m-1.733,11.77c-3.889-2.387-4.4-7.914.285-9.835-2.147,2.147-2.284,7.14-.285,9.835m1.734.057c-1.861-3.422-1.38-6.074,0-9.15,1.38,3.076,1.861,5.727,0,9.15m1.733-.057c2-2.7,1.863-7.688-.284-9.835,4.683,1.92,4.174,7.448.284,9.835" transform="translate(-138.708 -45.844)" fill="#606a74"/>
      <path id="Tracé_1693" data-name="Tracé 1693" d="M257.041,171.726H287.78V169.37H257.209Z" transform="translate(-114.461 -75.421)" fill="#606a74"/>
      <path id="Tracé_1694" data-name="Tracé 1694" d="M365.469,171.726H334.731V169.37H365.3Z" transform="translate(-149.056 -75.421)" fill="#606a74"/>
      <path id="Tracé_1695" data-name="Tracé 1695" d="M324.4,138.367H286.13l-3.694,10.817,45.662,0ZM301,147.678l3.471-4.61-2.9-2.836-3.185,3.338,1.761,1.936-.731.676-1.7-1.854-3.981,4.044-2.4-2.654-2.485,2.5-3.766-4.6,4.317-4.46,2.206,2.514,2.609-2.676,3.459,3.8,3.873-4.021,3.723,3.668,3.723-3.668,3.873,4.021,3.459-3.8,2.609,2.676,2.206-2.514,4.317,4.46-3.766,4.6-2.486-2.5-2.4,2.654-3.981-4.044-1.7,1.854-.73-.676,1.76-1.936-3.184-3.338-2.9,2.836,3.47,4.61Zm17.213-5.212-.958,1.094h3.522l-1.1-1.128,1.484-1.731,2.9,2.958-2.437,3-2.451-2.493-2.382,2.652-3.194-3.282,2.745-3.005Z" transform="translate(-125.769 -61.615)" fill="#606a74"/>
      <path id="Tracé_1696" data-name="Tracé 1696" d="M321.826,148.026l2.2,2.962h-4.41Z" transform="translate(-142.328 -65.916)" fill="#606a74"/>
      <path id="Tracé_1697" data-name="Tracé 1697" d="M295.558,144.2l.958,1.094h-3.523l1.1-1.128-1.483-1.731-2.9,2.958,2.436,3L294.6,145.9l2.382,2.652,3.194-3.282-2.745-3.005Z" transform="translate(-129.009 -63.349)" fill="#606a74"/>
    </g>
  </g>
  <path id="Tracé_1698" data-name="Tracé 1698" d="M402.016,275.323v11.321H413.19v-1.759h-9.077v-2.96h6.758v-1.948h-6.758v-2.919h9.077v-1.735Z" transform="translate(-179.018 -122.602)" fill="#606a74"/>
  <path id="Tracé_1699" data-name="Tracé 1699" d="M154.385,285.994h2.436l3.658-8.086,5.041,7.752,4.875-7.419,3.822,7.753H176.6l-5.928-12.021-5.151,8.253-5.262-8.364Z" transform="translate(-68.748 -121.952)" fill="#606a74"/>
  <g id="Groupe_785" data-name="Groupe 785">
    <g id="Groupe_784" data-name="Groupe 784" clip-path="url(#clip-path)">
      <path id="Tracé_1700" data-name="Tracé 1700" d="M254.3,275.359a3.854,3.854,0,0,1,3.952,3.6,4.068,4.068,0,0,1-3.547,3.8l4.113,3.894h-2.924l-4.117-3.788h-5.005v3.788h-2.142v-11.3Zm-7.528,1.865v3.655h7.012c1.4,0,2.289-.552,2.289-1.738s-1.265-1.918-2.585-1.918Z" transform="translate(-108.933 -122.618)" fill="#606a74"/>
      <path id="Tracé_1701" data-name="Tracé 1701" d="M362.541,275.358v11.3h2.133v-2.823l3.389-2.364,5.811,5.188h3.184l-7.257-6.594,6.463-4.708h-3.586l-8,5.818v-5.818Z" transform="translate(-161.44 -122.618)" fill="#606a74"/>
      <path id="Tracé_1702" data-name="Tracé 1702" d="M469.412,275.358v11.3h2.145v-4.8h8.671v4.8h2.142v-11.3h-2.142v4.728h-8.671v-4.728Z" transform="translate(-209.03 -122.618)" fill="#606a74"/>
      <path id="Tracé_1703" data-name="Tracé 1703" d="M335.026,286.11h2.481l-7.861-11.986-7.969,11.986h2.483l1.447-2.259h7.919Zm-8.283-4.033,2.751-4.293,2.853,4.293Z" transform="translate(-143.243 -122.068)" fill="#606a74"/>
      <path id="Tracé_1704" data-name="Tracé 1704" d="M217.357,286.11h2.485l-7.95-11.986-7.95,11.986h2.486l1.482-2.259h7.965Zm-8.283-4.033,2.818-4.293,2.818,4.293Z" transform="translate(-90.815 -122.068)" fill="#606a74"/>
      <path id="Tracé_1705" data-name="Tracé 1705" d="M445.872,283.072a6.71,6.71,0,0,1-8.034.473,3.585,3.585,0,0,1-1.363-2.9,3.546,3.546,0,0,1,1.38-2.856,5.583,5.583,0,0,1,3.626-1.142,6.065,6.065,0,0,1,4.39,1.573l1.555-1.316a8.84,8.84,0,0,0-10.889-.767,5.6,5.6,0,0,0-.032,9.047,8.046,8.046,0,0,0,4.976,1.5,9.678,9.678,0,0,0,3.667-.633,7.037,7.037,0,0,0,2.34-1.614Z" transform="translate(-193.359 -122.289)" fill="#606a74"/>
      <path id="Tracé_1706" data-name="Tracé 1706" d="M294.7,275.359a3.853,3.853,0,0,1,3.952,3.6,4.068,4.068,0,0,1-3.546,3.8l4.111,3.894H296.29l-4.117-3.788h-5v3.788h-2.143v-11.3Zm-7.527,1.865v3.655h7.011c1.4,0,2.29-.552,2.29-1.738s-1.266-1.918-2.587-1.918Z" transform="translate(-126.923 -122.618)" fill="#606a74"/>
      <path id="Tracé_1707" data-name="Tracé 1707" d="M315.081,157.87c0,2.492-.993,3.9-3.037,4.308l-.337.067V166.6a1.045,1.045,0,0,0,.454.189.65.65,0,0,0,.378-.189v-3.7c1.613-.42,3.374-1.642,3.374-5.036Z" transform="translate(-138.804 -70.3)" fill="#606a74"/>
      <path id="Tracé_1708" data-name="Tracé 1708" d="M289.527,163.809h-1.751c-.832,0-1.236-.487-1.238-1.485v-.013c0-1.314.661-1.483,1.238-1.483h1.751a.416.416,0,0,0,0-.832h-1.751a1.963,1.963,0,0,0-1.654.759,1.964,1.964,0,0,0-1.655-.759h-1.75a.416.416,0,0,0,0,.832h1.75c.577,0,1.239.169,1.239,1.49,0,1-.4,1.491-1.239,1.491h-1.75a.415.415,0,1,0,0,.83h1.75a1.9,1.9,0,0,0,1.655-.8,1.9,1.9,0,0,0,1.654.8h1.751a.415.415,0,1,0,0-.83" transform="translate(-125.71 -71.246)" fill="#606a74"/>
      <path id="Tracé_1709" data-name="Tracé 1709" d="M322.467,82.726l-.712-.241-4.574-1.634c-4.63-1.848-8.288-3.308-8.288-11.1V61.926c2.38-.976,4.126-4.078,4.126-7.752,0-4.454-2.563-8.078-5.716-8.078s-5.714,3.624-5.714,8.078c0,3.651,1.723,6.74,4.08,7.736v9.958c0,10.182-5.7,13.86-11.2,17.413-2.2,1.424-3.649,2.608-4.231,4.09-.582-1.483-2.027-2.666-4.233-4.09-5.508-3.552-11.2-7.23-11.2-17.413V61.908c2.356-1,4.081-4.084,4.081-7.735,0-4.454-2.565-8.078-5.716-8.078s-5.717,3.624-5.717,8.078c0,3.673,1.746,6.775,4.125,7.751v7.827c0,7.792-3.656,9.251-8.288,11.1l-4.57,1.634-.714.241c-4.557,1.563-11.722,5.883-8.53,17.3L252,108.222l.733,2.354a7.609,7.609,0,0,1,.47,3.445l-.475,2.811a.785.785,0,0,0,.425.189.973.973,0,0,0,.458-.189l.42-2.735a8.3,8.3,0,0,0-.5-3.764l-.516-1.66h11.559a.874.874,0,0,0,.863-.564c.829-2.394,4.047-11.692,4.211-12.158h15.481a2.443,2.443,0,0,0,2.467,1.847,2.774,2.774,0,0,0,2.643-1.529,2.773,2.773,0,0,0,2.643,1.529,2.44,2.44,0,0,0,2.462-1.847h15.405c.165.466,3.38,9.764,4.211,12.158a.871.871,0,0,0,.861.564h11.639l-.517,1.66a8.29,8.29,0,0,0-.5,3.764l.419,2.735a.964.964,0,0,0,.458.189.783.783,0,0,0,.421-.189l-.473-2.811a7.584,7.584,0,0,1,.472-3.445l.732-2.354L331,100.027c3.193-11.418-3.974-15.739-8.53-17.3M268.291,54.173c0-3.99,2.187-7.237,4.876-7.237s4.875,3.247,4.875,7.237-2.188,7.236-4.875,7.236-4.876-3.246-4.876-7.236m1.735,40.944c-1.58-2.076-3.4-4.018-7.379-4.018-3.71,0-7.712,2.62-7.712,6.854a5.487,5.487,0,0,0,5.687,5.5,3.409,3.409,0,0,0,3.173-1.985,2.166,2.166,0,0,0-.4-2.537,1.249,1.249,0,0,0-1.107-.388.757.757,0,0,1,.29.483,1,1,0,0,1-.249.789,1.5,1.5,0,0,1-1.065.557,1.731,1.731,0,0,1-1.711-1.573,2.222,2.222,0,0,1,2.357-2.173,3.715,3.715,0,0,1,3.561,3.839,4.538,4.538,0,0,1-2.294,3.685,5.4,5.4,0,0,1-5.524-.192,1.815,1.815,0,0,1-.85,1.729,1.986,1.986,0,0,1-1.179.121,2.289,2.289,0,0,0,.341-1.127,3.29,3.29,0,0,0-.65-1.872,7.777,7.777,0,0,1-1.771-4.656c0-5.06,4.757-8.461,9.2-8.461a9.839,9.839,0,0,1,8.936,5.421Zm15.112,0H272.6l.042-.022a10.7,10.7,0,0,0-9.891-6.231c-4.845,0-10.031,3.735-10.031,9.293a8.622,8.622,0,0,0,1.929,5.141,2.25,2.25,0,0,1-.323,2.908,3.137,3.137,0,0,0,2.829.24,1.965,1.965,0,0,0,1.048-1.253,5.8,5.8,0,0,0,5.415-.331,5.309,5.309,0,0,0,2.693-4.394,4.55,4.55,0,0,0-4.393-4.672,3.035,3.035,0,0,0-3.189,3.006,2.558,2.558,0,0,0,2.543,2.405,1.969,1.969,0,0,0,1.831-1.2,1.348,1.348,0,0,1-.073,1.144,2.567,2.567,0,0,1-2.405,1.473,4.673,4.673,0,0,1-4.855-4.672c0-3.719,3.572-6.022,6.88-6.022a7.246,7.246,0,0,1,6.382,3.25c-.227.656-3.3,9.531-4.163,12.029-.12.344-.242.628-.793.628H252.754l-1.588-5.148.007,0a30.736,30.736,0,0,1-.914-6.7c0-4.879,2.1-8.339,8.341-10.215a64.289,64.289,0,0,0,8.121-2.869c1.119-.546,4.461-2.32,5.859-4.516,1.809,6.987,7.969,11.194,9.914,12.349a38.591,38.591,0,0,1,4.226,2.768,1.721,1.721,0,0,0-.546.143,2.181,2.181,0,0,0-1.036,1.468m2.455,1.847a1.568,1.568,0,0,1-1.68-1.431,1.379,1.379,0,0,1,.662-1.154.9.9,0,0,1,1.177.09c.165-1.111.437-1.317-4.834-4.448-5.995-3.559-9.633-9.742-9.983-14.38-.438,2.623-4.073,5.292-6.579,6.518a63.494,63.494,0,0,1-7.994,2.819c-6.107,1.836-8.481,5.183-8.857,9.687.007-6.6,4.521-9.7,8.768-11.152l.713-.241,4.611-1.647c4.531-1.809,8.812-3.518,8.812-11.874V62.169a3.66,3.66,0,0,0,1.561-.01v9.708c0,10.636,5.887,14.437,11.582,18.113,3.1,2,4.142,3.256,4.142,4.975a1.915,1.915,0,0,1-2.1,2.011m14.835-42.792c0-3.99,2.187-7.237,4.875-7.237s4.876,3.247,4.876,7.237-2.189,7.235-4.876,7.235-4.875-3.245-4.875-7.235m8.017,40.944h-1.66a9.842,9.842,0,0,1,8.937-5.421c4.442,0,9.2,3.4,9.2,8.461a7.769,7.769,0,0,1-1.77,4.656,3.292,3.292,0,0,0-.648,1.872,2.309,2.309,0,0,0,.338,1.127,1.976,1.976,0,0,1-1.175-.121,1.816,1.816,0,0,1-.853-1.729,5.4,5.4,0,0,1-5.526.192,4.54,4.54,0,0,1-2.29-3.685,3.713,3.713,0,0,1,3.559-3.839,2.222,2.222,0,0,1,2.359,2.173,1.732,1.732,0,0,1-1.712,1.573,1.49,1.49,0,0,1-1.065-.557,1,1,0,0,1-.25-.789.748.748,0,0,1,.293-.483,1.253,1.253,0,0,0-1.112.388,2.168,2.168,0,0,0-.393,2.537,3.41,3.41,0,0,0,3.176,1.985,5.487,5.487,0,0,0,5.685-5.5c0-4.234-4-6.854-7.713-6.854-3.973,0-5.8,1.942-7.377,4.018m18.86,7.573-1.589,5.148h-11.4c-.551,0-.674-.284-.791-.628-.84-2.418-3.749-10.828-4.14-11.959a7.275,7.275,0,0,1,6.436-3.32c3.308,0,6.88,2.3,6.88,6.022a4.672,4.672,0,0,1-4.853,4.672,2.567,2.567,0,0,1-2.407-1.473,1.358,1.358,0,0,1-.074-1.144,1.973,1.973,0,0,0,1.832,1.2,2.559,2.559,0,0,0,2.544-2.405,3.036,3.036,0,0,0-3.191-3.006,4.55,4.55,0,0,0-4.392,4.672,5.306,5.306,0,0,0,2.693,4.394,5.793,5.793,0,0,0,5.413.331,1.976,1.976,0,0,0,1.05,1.253,3.139,3.139,0,0,0,2.829-.24,2.251,2.251,0,0,1-.322-2.908,8.628,8.628,0,0,0,1.925-5.141c0-5.558-5.184-9.293-10.029-9.293a10.7,10.7,0,0,0-9.89,6.231l.041.022H295.33A2.18,2.18,0,0,0,294.3,93.65a1.706,1.706,0,0,0-.545-.143,38.662,38.662,0,0,1,4.226-2.768c1.945-1.155,8.1-5.362,9.913-12.349,1.4,2.2,4.741,3.969,5.86,4.516a64.35,64.35,0,0,0,8.121,2.869c6.243,1.875,8.342,5.336,8.342,10.215a30.778,30.778,0,0,1-.916,6.7Zm-7.2-17.712a63.371,63.371,0,0,1-7.994-2.819c-2.506-1.225-6.14-3.9-6.578-6.518-.352,4.638-3.991,10.821-9.985,14.38-5.27,3.131-5,3.338-4.832,4.448a.9.9,0,0,1,1.172-.09,1.377,1.377,0,0,1,.665,1.154,1.567,1.567,0,0,1-1.679,1.431,1.914,1.914,0,0,1-2.1-2.011c0-1.719,1.045-2.974,4.142-4.975C300.614,86.3,306.5,82.5,306.5,71.867V62.16a4.04,4.04,0,0,0,.8.089,4.091,4.091,0,0,0,.757-.079v7.58c0,8.356,4.282,10.064,8.813,11.874l4.61,1.647.715.241c4.248,1.457,8.765,4.558,8.768,11.158-.374-4.507-2.747-7.856-8.857-9.693" transform="translate(-110.738 -20.526)" fill="#606a74"/>
      <path id="Tracé_1710" data-name="Tracé 1710" d="M292.949,58.754c0,1.231-.283,2.23-.632,2.23s-.632-1-.632-2.23.283-2.23.632-2.23.632,1,.632,2.23" transform="translate(-129.888 -25.17)" fill="#606a74"/>
      <path id="Tracé_1711" data-name="Tracé 1711" d="M289.321,50.485a4.8,4.8,0,0,0-1.757,2.7.416.416,0,1,0,.8.242,4.052,4.052,0,0,1,1.409-2.236.416.416,0,0,0-.449-.7" transform="translate(-128.045 -22.452)" fill="#606a74"/>
      <path id="Tracé_1712" data-name="Tracé 1712" d="M289.3,68.064a.416.416,0,0,0-.074.584,2.5,2.5,0,0,0,1.956,1.109,2.343,2.343,0,0,0,1.667-.777.416.416,0,0,0-.594-.582,1.518,1.518,0,0,1-1.073.527,1.763,1.763,0,0,1-1.3-.787.416.416,0,0,0-.584-.074" transform="translate(-128.755 -30.27)" fill="#606a74"/>
      <path id="Tracé_1713" data-name="Tracé 1713" d="M297.284,59.179a.422.422,0,0,0-.407.464l0,.293a8.779,8.779,0,0,1-.49,2.982.416.416,0,1,0,.781.286,9.615,9.615,0,0,0,.541-3.268l0-.316a.435.435,0,0,0-.425-.442" transform="translate(-131.972 -26.352)" fill="#606a74"/>
      <path id="Tracé_1714" data-name="Tracé 1714" d="M286.867,59.231l-.013.552a10,10,0,0,0,.327,2.591.416.416,0,0,0,.8-.216,9.275,9.275,0,0,1-.3-2.375l.012-.511a.425.425,0,0,0-.4-.437.407.407,0,0,0-.426.4" transform="translate(-127.737 -26.2)" fill="#606a74"/>
      <path id="Tracé_1715" data-name="Tracé 1715" d="M293.912,50.663a.416.416,0,0,0,.11.578,4.3,4.3,0,0,1,1.428,2.416.416.416,0,0,0,.8-.219,5.036,5.036,0,0,0-1.763-2.886.416.416,0,0,0-.578.11" transform="translate(-130.847 -22.479)" fill="#606a74"/>
      <path id="Tracé_1716" data-name="Tracé 1716" d="M353.228,58.754c0,1.231.284,2.23.632,2.23s.631-1,.631-2.23-.282-2.23-.631-2.23-.632,1-.632,2.23" transform="translate(-157.293 -25.17)" fill="#606a74"/>
      <path id="Tracé_1717" data-name="Tracé 1717" d="M355.931,50.485a4.794,4.794,0,0,1,1.756,2.7.416.416,0,1,1-.8.242,4.055,4.055,0,0,0-1.41-2.236.416.416,0,1,1,.449-.7" transform="translate(-158.211 -22.452)" fill="#606a74"/>
      <path id="Tracé_1718" data-name="Tracé 1718" d="M354.816,68.064a.415.415,0,0,1,.074.584,2.5,2.5,0,0,1-1.956,1.109,2.341,2.341,0,0,1-1.667-.777.416.416,0,0,1,.594-.582,1.519,1.519,0,0,0,1.073.527,1.766,1.766,0,0,0,1.3-.787.415.415,0,0,1,.583-.074" transform="translate(-156.367 -30.27)" fill="#606a74"/>
      <path id="Tracé_1719" data-name="Tracé 1719" d="M348.826,59.179a.422.422,0,0,1,.407.464l0,.293a8.78,8.78,0,0,0,.489,2.982.415.415,0,1,1-.78.286,9.586,9.586,0,0,1-.541-3.268l0-.316a.435.435,0,0,1,.425-.442" transform="translate(-155.142 -26.352)" fill="#606a74"/>
      <path id="Tracé_1720" data-name="Tracé 1720" d="M359.406,59.231l.013.552a10.022,10.022,0,0,1-.327,2.591.416.416,0,0,1-.8-.216,9.3,9.3,0,0,0,.3-2.375l-.013-.511a.426.426,0,0,1,.4-.437.409.409,0,0,1,.427.4" transform="translate(-159.54 -26.2)" fill="#606a74"/>
      <path id="Tracé_1721" data-name="Tracé 1721" d="M351.33,50.663a.416.416,0,0,1-.109.578,4.3,4.3,0,0,0-1.428,2.416.416.416,0,1,1-.8-.219,5.039,5.039,0,0,1,1.763-2.886.415.415,0,0,1,.577.11" transform="translate(-155.399 -22.479)" fill="#606a74"/>
      <path id="Tracé_1722" data-name="Tracé 1722" d="M322.761,65.405a2.219,2.219,0,0,0,.314-.171,2.133,2.133,0,1,0-2.066.171,2.221,2.221,0,0,0-.86,1.751V80.54h0a1.765,1.765,0,1,0,3.474,0h0V67.157a2.222,2.222,0,0,0-.861-1.751m-2.34-1.935a1.464,1.464,0,1,1,1.465,1.463,1.466,1.466,0,0,1-1.465-1.463m.392,3.687a1.114,1.114,0,1,1,2.144,0V80.54c0,.636-.5,1.416-1.071,1.416a1.108,1.108,0,0,1-.885-.688c-.015-.03-.026-.063-.04-.094a1.607,1.607,0,0,1-.148-.634Z" transform="translate(-142.388 -27.315)" fill="#606a74"/>
      <path id="Tracé_1723" data-name="Tracé 1723" d="M328.731,157.87c0,2.492.993,3.9,3.038,4.308l.335.067V166.6a1.039,1.039,0,0,1-.454.189.65.65,0,0,1-.377-.189v-3.7c-1.613-.42-3.375-1.642-3.375-5.036Z" transform="translate(-146.014 -70.3)" fill="#606a74"/>
      <path id="Tracé_1724" data-name="Tracé 1724" d="M358.339,163.809h-1.751c-.832,0-1.238-.488-1.238-1.491,0-1.321.661-1.49,1.238-1.49h1.751a.416.416,0,0,0,0-.832h-1.751a2.178,2.178,0,0,1-3.305,0H351.53a.416.416,0,0,0,0,.832h1.753c.577,0,1.236.169,1.236,1.49,0,1-.4,1.491-1.236,1.491H351.53a.415.415,0,0,0,0,.83h1.753a2.1,2.1,0,0,1,3.305,0h1.751a.415.415,0,1,0,0-.83" transform="translate(-156.353 -71.246)" fill="#606a74"/>
      <path id="Tracé_1725" data-name="Tracé 1725" d="M328.752,58.452c-1.474-1.086-1.958-2.764-1.958-6.389V23.427c.125-.052.259-.1.381-.154a2.516,2.516,0,0,0,1.436-3.322,2.366,2.366,0,0,0-1.816-1.57V0l-.575.234c-7.415,3.025-17.015,4.69-27.029,4.69S279.578,3.259,272.163.234L271.589,0V18.38a2.364,2.364,0,0,0-1.817,1.57,2.514,2.514,0,0,0,1.437,3.322c.122.052.255.1.38.154V52.063c0,3.625-.485,5.3-1.96,6.389-.949.7-1.179.911-.227.911,3.519,0,5.539-2.821,5.539-7.851V24.61A87.114,87.114,0,0,0,292.858,27.8a20.366,20.366,0,0,1,3.028,5.288.512.512,0,0,0,.515.28h5.58a.514.514,0,0,0,.515-.28,20.312,20.312,0,0,1,3.028-5.288,87.167,87.167,0,0,0,17.917-3.193v26.9c0,5.03,2.02,7.851,5.538,7.851.952,0,.723-.211-.227-.911m-2.545-39.191a1.069,1.069,0,0,1,.891.093,12.968,12.968,0,0,0-1.862,2.246,6.83,6.83,0,0,1-2.018,2.208c-1.189.366-2.457.713-3.8,1.032a22.245,22.245,0,0,0,2.016-2.25,14.984,14.984,0,0,1,2.436-2.568q1.214-.378,2.337-.762M281.3,21.791a16.137,16.137,0,0,0-2.1,1.012,7.184,7.184,0,0,1-3.253,1.214l0,.027q-1.5-.437-2.815-.916a12,12,0,0,0,2.591-1.01,6.914,6.914,0,0,1,2.852-.951q1.3.327,2.727.625m-1.888,1.4a7.786,7.786,0,0,1,3-1.18q1.484.286,3.105.53a18.957,18.957,0,0,0-2.315,1.133,9.249,9.249,0,0,1-3.314,1.367v.008c-1.017-.229-2-.47-2.943-.726a13.432,13.432,0,0,0,2.466-1.132m4,.871a9.792,9.792,0,0,1,3.222-1.358c1,.135,2.059.252,3.147.356a21.093,21.093,0,0,0-2.247,1.263,9.364,9.364,0,0,1-3.317,1.58q-1.7-.29-3.325-.634a16.713,16.713,0,0,0,2.519-1.206m4.356.638a11.047,11.047,0,0,1,3.094-1.543q1.574.131,3.268.212a22.106,22.106,0,0,0-2.207,1.379,9.57,9.57,0,0,1-3.317,1.774l0,.018q-1.673-.206-3.315-.465a18.85,18.85,0,0,0,2.475-1.376m4.407.414a11.655,11.655,0,0,1,3.015-1.7c1.146.042,2.332.068,3.565.073A22.043,22.043,0,0,0,296.37,25.1,11.315,11.315,0,0,1,293.2,27c-1.183-.088-2.372-.2-3.56-.33a18.48,18.48,0,0,0,2.533-1.551m4.456.336a11.613,11.613,0,0,1,3.289-1.968c1.238-.008,2.437-.034,3.588-.08a21.9,21.9,0,0,0-2.294,1.748,11.6,11.6,0,0,1-3,2.066c-1.306-.017-2.64-.069-3.993-.154a20.471,20.471,0,0,0,2.411-1.613m4.866.042a11.83,11.83,0,0,1,3.133-2.144c1.248-.065,2.452-.148,3.6-.253a23.3,23.3,0,0,0-2.151,1.771c-1.177,1.043-2.391,2.121-3.193,2.272-1.248.059-2.478.091-3.676.091A20.546,20.546,0,0,0,301.5,25.5m4.877-.295a11.042,11.042,0,0,1,3.024-2.213v0q1.992-.209,3.795-.487a25.581,25.581,0,0,0-2.055,1.848,14.153,14.153,0,0,1-2.886,2.376c-1.395.149-2.788.266-4.171.351a21.611,21.611,0,0,0,2.294-1.87m5.072-.538a13.12,13.12,0,0,1,2.884-2.353q1.952-.331,3.7-.724a25.851,25.851,0,0,0-1.908,1.934,15.2,15.2,0,0,1-2.673,2.5c-1.373.223-2.771.419-4.18.585a24.379,24.379,0,0,0,2.175-1.941m5-.842a14.737,14.737,0,0,1,2.663-2.487q1.964-.473,3.7-.991a25.806,25.806,0,0,0-1.725,1.967,14.055,14.055,0,0,1-2.678,2.76c-1.289.288-2.625.554-4,.792a24.285,24.285,0,0,0,2.036-2.04m-45.9-3.572a1.363,1.363,0,0,1,1.627-.987c.539.184,1.1.367,1.667.549a11.932,11.932,0,0,0-1.65.618,5.422,5.422,0,0,1-1.769.566,1.949,1.949,0,0,1,.124-.747m-.056,1.194a5.974,5.974,0,0,0,1.879-.607,6.2,6.2,0,0,1,2.451-.718q1.286.4,2.69.772a14.552,14.552,0,0,0-1.985.828c-1.216.583-2.475,1.186-3.373,1.014l0,.021c-.2-.082-.419-.162-.613-.245a1.724,1.724,0,0,1-1.043-1.065m56.355,1.065c-.754.322-1.586.632-2.472.932a16.4,16.4,0,0,0,1.224-1.582,12.167,12.167,0,0,1,1.852-2.222,1.9,1.9,0,0,1,.383.613,1.676,1.676,0,0,1-.987,2.258M272.421,1.2c7.436,2.927,16.893,4.558,26.771,4.558s19.335-1.631,26.77-4.558V18.468c-.008,0-.016,0-.024,0-6.093,2.073-14.039,4.189-26.746,4.189s-20.654-2.116-26.749-4.189c-.007,0-.014,0-.022,0Zm26.343,26.861.289,2.183h.274l.292-2.183q.993-.006,2.009-.039a20.274,20.274,0,0,0-1.245,2.544c-.1.25-.135.255-.318.255h-1.748c-.184,0-.221,0-.317-.255a20.528,20.528,0,0,0-1.245-2.544q1.016.032,2.01.039M274.108,51.512c0,3.621-1.087,5.887-3.034,6.7,1.1-1.323,1.346-3.267,1.346-6.147V23.755c.536.2,1.1.4,1.688.592Zm27.855-19.278c-.074.194-.157.3-.295.3h-4.956c-.138,0-.221-.11-.295-.3a23.043,23.043,0,0,0-2.442-4.35q.993.065,1.973.106a15.808,15.808,0,0,1,1.548,3.148.434.434,0,0,0,.46.346h2.466a.434.434,0,0,0,.462-.346,15.813,15.813,0,0,1,1.548-3.148q.98-.042,1.974-.106a23.1,23.1,0,0,0-2.443,4.35m22.309,19.278V24.348q.883-.288,1.689-.592V52.063c0,2.88.249,4.824,1.347,6.147-1.947-.812-3.036-3.078-3.036-6.7" transform="translate(-119.694)" fill="#606a74"/>
    </g>
  </g>
</svg>
