<?xml version="1.0" encoding="UTF-8" standalone="no" ?>
<!DOCTYPE svg PUBLIC "-//W3C//DTD SVG 1.1//EN" "http://www.w3.org/Graphics/SVG/1.1/DTD/svg11.dtd">
<svg xmlns="http://www.w3.org/2000/svg" xmlns:xlink="http://www.w3.org/1999/xlink" version="1.1" width="1080" height="1080" viewBox="0 0 1080 1080" xml:space="preserve">
<desc>Created with Fabric.js 5.2.4</desc>
<defs>
</defs>
<rect x="0" y="0" width="100%" height="100%" fill="transparent"></rect>
<g transform="matrix(1 0 0 1 540 540)" id="e46ddbf2-c53b-4861-a179-630b541907bf"  >
</g>
<g transform="matrix(1 0 0 1 540 540)" id="a1e25da8-646a-4443-8cb9-2f775a8bff9f"  >
<rect style="stroke: none; stroke-width: 1; stroke-dasharray: none; stroke-linecap: butt; stroke-dashoffset: 0; stroke-linejoin: miter; stroke-miterlimit: 4; fill: rgb(255,255,255); fill-rule: nonzero; opacity: 1; visibility: hidden;" vector-effect="non-scaling-stroke"  x="-540" y="-540" rx="0" ry="0" width="1080" height="1080" />
</g>
<g transform="matrix(13.4 0 0 13.4 273.06 63.76)" clip-path="url(#CLIPPATH_33)"  >
<clipPath id="CLIPPATH_33" >
	<rect transform="matrix(1 0 0 1 19.94 69.46)" id="Rectangle_482" x="-179.5" y="-82.2" rx="0" ry="0" width="359" height="164.4" />
</clipPath>
<path style="stroke: none; stroke-width: 1; stroke-dasharray: none; stroke-linecap: butt; stroke-dashoffset: 0; stroke-linejoin: miter; stroke-miterlimit: 4; fill: rgb(255,255,255); fill-rule: nonzero; opacity: 1;" vector-effect="non-scaling-stroke"  transform=" translate(-282.98, -15.92)" d="M 278.091 22.459 C 277.310648147847 21.579943703055502 276.9904544740485 20.38440574972885 277.22700000000003 19.233000000000004 C 278.16132989535186 19.41350912956999 279.0105120164808 19.895895166934515 279.644 20.606 C 278.779 19.711000000000002 277.511 18.397000000000002 277.722 16.656000000000002 C 278.54605419781626 16.604854058679642 279.3466384365333 16.941883745126596 279.88599999999997 17.567000000000004 C 278.93760189868465 16.702607472451927 278.4181428033343 15.46431941769077 278.46599999999995 14.182000000000006 C 279.24753702340894 14.131567712350162 280.01017133430884 14.43610713611511 280.542 15.011000000000005 C 279.55593325706644 14.15155632434358 279.11761641164634 12.82241705380452 279.399 11.545000000000005 C 280.466 11.585000000000004 281.188 11.959000000000005 281.23 12.482000000000005 C 280.5928614976394 11.51256478480263 280.3874691227178 10.321868600733584 280.663 9.195000000000004 C 281.28255608111243 9.263455323567287 281.8335986455293 9.619946881717278 282.15000000000003 10.157000000000002 C 281.862 8.838000000000005 282.218 7.522000000000004 283.13100000000003 7.144000000000004 C 284.1299862434012 7.916958672253765 284.46192147084184 9.277893104760139 283.93100000000004 10.424000000000003 C 284.3591908781064 9.945062169351962 284.9924327143509 9.702567795590092 285.63100000000003 9.773000000000003 C 285.8133007028079 10.873942315065417 285.50740040354594 11.999713822134511 284.793 12.857000000000005 C 284.914 12.378000000000004 285.926 12.301000000000002 286.808 12.457000000000003 C 286.9644587289147 13.717068579890876 286.3933353289848 14.956956558029061 285.334 15.657000000000004 C 286.10684665545494 15.242092395427596 287.0089718167858 15.138001030658653 287.856 15.366000000000003 C 287.8409248882434 16.729423712006056 287.07321948158943 17.97276013751935 285.861 18.597 C 286.6500038166848 18.2522334279829 287.53545146761496 18.19733567362523 288.361 18.442 C 288.21084254200815 19.693346582427907 287.6036308417609 20.845090065477546 286.656 21.676000000000002 C 287.304503471851 21.29951796029225 288.07728987172874 21.200036128964694 288.8 21.4 C 288.78688830620683 22.811031378810377 287.96850659433835 24.0904567983143 286.693 24.694 Z" stroke-linecap="round" />
</g>
<g transform="matrix(13.4 0 0 13.4 809.04 63.76)" clip-path="url(#CLIPPATH_34)"  >
<clipPath id="CLIPPATH_34" >
	<rect transform="matrix(1 0 0 1 -20.03 69.46)" id="Rectangle_482" x="-179.5" y="-82.2" rx="0" ry="0" width="359" height="164.4" />
</clipPath>
<path style="stroke: none; stroke-width: 1; stroke-dasharray: none; stroke-linecap: butt; stroke-dashoffset: 0; stroke-linejoin: miter; stroke-miterlimit: 4; fill: rgb(255,255,255); fill-rule: nonzero; opacity: 1;" vector-effect="non-scaling-stroke"  transform=" translate(-355.03, -15.92)" d="M 359.918 22.459 C 360.698351852153 21.579943703055502 361.01854552595154 20.384405749728845 360.782 19.233 C 359.8475400642979 19.41315685394545 358.998251987725 19.895603080314757 358.365 20.606 C 359.229 19.711000000000002 360.498 18.397000000000002 360.286 16.656000000000002 C 359.4619990988284 16.60516768128642 358.6615486190289 16.94214105794877 358.122 17.567000000000004 C 359.0706534511586 16.70271104469371 359.5904657526765 15.464453028762623 359.543 14.182000000000004 C 358.7616014151361 14.132436511435365 357.99932674583107 14.436832321095233 357.467 15.011000000000005 C 358.4526922805909 14.151307688698399 358.8909346810906 12.822394162773616 358.60999999999996 11.545000000000007 C 357.542 11.585000000000004 356.81999999999994 11.959000000000005 356.77799999999996 12.482000000000005 C 357.4154807026782 11.512738086700132 357.62191380382086 10.322307203444234 357.34799999999996 9.195000000000004 C 356.72796934815244 9.262848194941071 356.1763717381105 9.619459015411756 355.85999999999996 10.157000000000004 C 356.14699999999993 8.838000000000005 355.79099999999994 7.522000000000004 354.87799999999993 7.144000000000004 C 353.87934402129775 7.917173017017741 353.54747039395073 9.277854889140473 354.0779999999999 10.424000000000003 C 353.6500037672968 9.944779860298846 353.01661099031304 9.702227685112705 352.37799999999993 9.773000000000003 C 352.19543004179246 10.874279244454526 352.50216189671585 12.000423340387517 353.2179999999999 12.857000000000003 C 353.0949999999999 12.378000000000004 352.0839999999999 12.301000000000002 351.2019999999999 12.457000000000003 C 351.04505659895193 13.71714379876282 351.6162925037336 14.957276020812564 352.6759999999999 15.657000000000004 C 351.903184170466 15.241994073869696 351.00102055879614 15.137898272523174 350.1539999999999 15.366000000000003 C 350.1686582772663 16.729270086205275 350.93601085558566 17.97265834124532 352.1479999999999 18.597 C 351.3589961833151 18.2522334279829 350.47354853238494 18.19733567362523 349.6479999999999 18.442 C 349.7977903783896 19.693461029840808 350.4050673273461 20.845328274958288 351.3529999999999 21.676000000000002 C 350.70229005807545 21.297326802717166 349.92602433682316 21.198129277928885 349.2009999999999 21.401000000000003 C 349.21339238983415 22.812245284248917 350.03199761045096 24.092020128440527 351.30799999999994 24.695000000000004 Z" stroke-linecap="round" />
</g>
<g transform="matrix(13.4 0 0 13.4 448.09 87.38)" clip-path="url(#CLIPPATH_35)"  >
<clipPath id="CLIPPATH_35" >
	<rect transform="matrix(1 0 0 1 6.89 67.7)" id="Rectangle_482" x="-179.5" y="-82.2" rx="0" ry="0" width="359" height="164.4" />
</clipPath>
<path style="stroke: none; stroke-width: 1; stroke-dasharray: none; stroke-linecap: butt; stroke-dashoffset: 0; stroke-linejoin: miter; stroke-miterlimit: 4; fill: rgb(255,255,255); fill-rule: nonzero; opacity: 1;" vector-effect="non-scaling-stroke"  transform=" translate(-306.08, -19.15)" d="M 301.309 27.021 C 300.559 26.821 299.44100000000003 24.391000000000002 299.79600000000005 22.957 C 300.55216941999186 23.05602419431601 301.21832585534173 23.503459266725983 301.59600000000006 24.166 C 300.65731220426346 22.989018547878754 300.3134787875136 21.445088452279883 300.66400000000004 19.981 C 301.37300000000005 20.189 302.03200000000004 20.337000000000003 302.30800000000005 21.073 C 302.03100000000006 20.514 300.76000000000005 18.823 301.4080000000001 17.164 C 302.1482271498631 17.1987946993109 302.8241130438191 17.59505523448425 303.21600000000007 18.224 C 302.4459273037683 17.084987880516355 302.23614968948067 15.65739601065357 302.6460000000001 14.345 C 303.35419932357775 14.506285518979709 303.9521350938002 14.977876138737498 304.27400000000006 15.629000000000001 C 303.86600000000004 14.820000000000002 303.21600000000007 13.062000000000001 304.0570000000001 11.862000000000002 C 304.690447449908 12.118612473169259 305.1834412525702 12.634544687624498 305.41100000000006 13.279000000000002 C 305.1721301429837 12.227283796504965 305.54805052567013 11.130881609308155 306.38200000000006 10.447000000000003 C 307.11350970599636 11.229810908743662 307.4107349610132 12.323629794334549 307.17600000000004 13.369000000000002 C 307.4010044414927 12.748389930614305 307.9177581660509 12.278783902865893 308.557 12.114000000000004 C 309.28200000000004 13.402000000000005 308.344 15.233000000000004 308.071 15.853000000000005 C 308.4199043493087 15.187389533673095 309.0785863969715 14.740386503036964 309.826 14.662000000000004 C 310.291 16.012000000000004 309.372 17.662000000000006 308.92600000000004 18.343000000000004 C 309.3800884762302 17.813099063482955 310.0355609577837 17.49787737755601 310.73300000000006 17.474000000000004 C 310.95847980876755 18.806083360741056 310.55746929814865 20.16774830526212 309.6460000000001 21.165 C 310.10977698009475 20.653517964146925 310.7144728566406 20.29063085296319 311.38400000000007 20.122000000000003 C 311.92600000000004 21.656000000000002 311.05800000000005 23.553000000000004 310.5450000000001 24.354000000000003 C 310.97435495909383 23.713274215993057 311.58405075223993 23.214242385301585 312.2970000000001 22.92 C 312.7900000000001 24.334000000000003 311.8780000000001 27.306 310.6120000000001 27.855 Z" stroke-linecap="round" />
</g>
<g transform="matrix(13.4 0 0 13.4 634.01 87.38)" clip-path="url(#CLIPPATH_36)"  >
<clipPath id="CLIPPATH_36" >
	<rect transform="matrix(1 0 0 1 -6.97 67.7)" id="Rectangle_482" x="-179.5" y="-82.2" rx="0" ry="0" width="359" height="164.4" />
</clipPath>
<path style="stroke: none; stroke-width: 1; stroke-dasharray: none; stroke-linecap: butt; stroke-dashoffset: 0; stroke-linejoin: miter; stroke-miterlimit: 4; fill: rgb(255,255,255); fill-rule: nonzero; opacity: 1;" vector-effect="non-scaling-stroke"  transform=" translate(-331.08, -19.15)" d="M 335.845 27.021 C 336.595 26.821 337.713 24.391000000000002 337.358 22.957 C 336.60171764503144 23.055724822571175 335.93543972825125 23.503241490008538 335.558 24.166 C 336.49627041222 22.98881892926631 336.8400585642681 21.445092087719818 336.49 19.981 C 335.782 20.189 335.121 20.337000000000003 334.846 21.073 C 335.122 20.514 336.394 18.823 335.746 17.164 C 335.0060822978222 17.198946772067224 334.3305649636743 17.59521039918221 333.93899999999996 18.224 C 334.7087332655581 17.08482669705751 334.9181412254081 15.65724589519818 334.508 14.344999999999999 C 333.8006122954576 14.506959991395384 333.20355411972827 14.978437665218545 332.882 15.629000000000001 C 333.289 14.820000000000002 333.94 13.062000000000001 333.099 11.862000000000002 C 332.465106595611 12.117955321356199 331.9718820071345 12.634129059813487 331.745 13.279000000000003 C 331.9829100350689 12.22712966961341 331.60671855445094 11.131065602627679 330.773 10.447000000000003 C 330.0418472356967 11.230000812403965 329.7450026859739 12.323796240260226 329.98 13.369000000000003 C 329.7546062848577 12.74790110710168 329.23700275346965 12.27820303631934 328.59700000000004 12.114000000000004 C 327.87500000000006 13.402000000000005 328.812 15.233000000000004 329.086 15.853000000000005 C 328.7362163880455 15.187728757220924 328.0774650104896 14.740933261395732 327.33000000000004 14.662000000000004 C 326.86600000000004 16.012000000000004 327.78400000000005 17.662000000000006 328.23 18.343000000000004 C 327.7764512299545 17.812951635533494 327.1212070784612 17.497665274709764 326.42400000000004 17.474000000000004 C 326.199749789545 18.806010009223442 326.60060379135405 20.16714351490628 327.511 21.165000000000006 C 327.0478762117553 20.653218449516938 326.443398780977 20.290253590391 325.774 20.122000000000003 C 325.231 21.656000000000002 326.101 23.553000000000004 326.614 24.354000000000003 C 326.169 23.897000000000002 325.731 23.154000000000003 324.861 22.92 C 324.36899999999997 24.334000000000003 325.279 27.306 326.546 27.855 Z" stroke-linecap="round" />
</g>
<g transform="matrix(13.4 0 0 13.4 540.37 768.74)" clip-path="url(#CLIPPATH_37)"  >
<clipPath id="CLIPPATH_37" >
	<rect transform="matrix(1 0 0 1 0.01 16.89)" id="Rectangle_482" x="-179.5" y="-82.2" rx="0" ry="0" width="359" height="164.4" />
</clipPath>
<path style="stroke: none; stroke-width: 1; stroke-dasharray: none; stroke-linecap: butt; stroke-dashoffset: 0; stroke-linejoin: miter; stroke-miterlimit: 4; fill: rgb(255,255,255); fill-rule: nonzero; opacity: 1;" vector-effect="non-scaling-stroke"  transform=" translate(-318.2, -111.15)" d="M 318.2 102.951 C 314.6185509841149 102.89993412261478 311.6450467096779 105.70467552969588 311.48699999999997 109.28299999999999 C 311.48699999999997 112.18299999999999 312.304 113.34699999999998 314.68699999999995 115.29499999999999 C 315.811 116.15099999999998 318.19899999999996 117.75099999999999 318.19899999999996 119.35 C 318.19899999999996 117.75 320.58899999999994 116.14999999999999 321.71 115.29499999999999 C 324.096 113.347 324.90999999999997 112.17899999999999 324.90999999999997 109.28299999999999 C 324.75089478666644 105.70396668485711 321.7761957500919 102.89935169087414 318.19399999999996 102.951 M 316.46099999999996 114.72099999999999 C 312.57199999999995 112.33399999999999 312.061 106.80699999999999 316.746 104.886 C 314.599 107.033 314.462 112.026 316.46099999999996 114.721 M 318.19499999999994 114.778 C 316.33399999999995 111.35600000000001 316.81499999999994 108.70400000000001 318.19499999999994 105.628 C 319.57499999999993 108.704 320.0559999999999 111.355 318.19499999999994 114.778 M 319.92799999999994 114.721 C 321.92799999999994 112.021 321.79099999999994 107.033 319.64399999999995 104.886 C 324.32699999999994 106.806 323.8179999999999 112.334 319.92799999999994 114.721" stroke-linecap="round" />
</g>
<g transform="matrix(13.4 0 0 13.4 251.35 1168.8)" clip-path="url(#CLIPPATH_38)"  >
<clipPath id="CLIPPATH_38" >
	<rect transform="matrix(1 0 0 1 21.55 -12.93)" id="Rectangle_482" x="-179.5" y="-82.2" rx="0" ry="0" width="359" height="164.4" />
</clipPath>
<path style="stroke: none; stroke-width: 1; stroke-dasharray: none; stroke-linecap: butt; stroke-dashoffset: 0; stroke-linejoin: miter; stroke-miterlimit: 4; fill: rgb(255,255,255); fill-rule: nonzero; opacity: 1;" vector-effect="non-scaling-stroke"  transform=" translate(-272.41, -170.55)" d="M 257.041 171.726 L 287.78 171.726 L 287.78 169.37 L 257.209 169.37 Z" stroke-linecap="round" />
</g>
<g transform="matrix(13.4 0 0 13.4 829.29 1168.8)" clip-path="url(#CLIPPATH_39)"  >
<clipPath id="CLIPPATH_39" >
	<rect transform="matrix(1 0 0 1 -21.54 -12.93)" id="Rectangle_482" x="-179.5" y="-82.2" rx="0" ry="0" width="359" height="164.4" />
</clipPath>
<path style="stroke: none; stroke-width: 1; stroke-dasharray: none; stroke-linecap: butt; stroke-dashoffset: 0; stroke-linejoin: miter; stroke-miterlimit: 4; fill: rgb(255,255,255); fill-rule: nonzero; opacity: 1;" vector-effect="non-scaling-stroke"  transform=" translate(-350.1, -170.55)" d="M 365.469 171.726 L 334.731 171.726 L 334.731 169.37 L 365.3 169.37 Z" stroke-linecap="round" />
</g>
<g transform="matrix(13.4 0 0 13.4 540.25 994.85)" clip-path="url(#CLIPPATH_40)"  >
<clipPath id="CLIPPATH_40" >
	<rect transform="matrix(1 0 0 1 0 0.04)" id="Rectangle_482" x="-179.5" y="-82.2" rx="0" ry="0" width="359" height="164.4" />
</clipPath>
<path style="stroke: none; stroke-width: 1; stroke-dasharray: none; stroke-linecap: butt; stroke-dashoffset: 0; stroke-linejoin: miter; stroke-miterlimit: 4; fill: rgb(255,255,255); fill-rule: nonzero; opacity: 1;" vector-effect="non-scaling-stroke"  transform=" translate(-305.27, -143.78)" d="M 324.4 138.367 L 286.13 138.367 L 282.436 149.184 L 328.09799999999996 149.184 Z M 301 147.678 L 304.471 143.06799999999998 L 301.571 140.23199999999997 L 298.386 143.56999999999996 L 300.14700000000005 145.50599999999997 L 299.41600000000005 146.18199999999996 L 297.71600000000007 144.32799999999995 L 293.73500000000007 148.37199999999996 L 291.3350000000001 145.71799999999996 L 288.8500000000001 148.21799999999996 L 285.08400000000006 143.61799999999997 L 289.40100000000007 139.15799999999996 L 291.6070000000001 141.67199999999997 L 294.21600000000007 138.99599999999998 L 297.67500000000007 142.796 L 301.54800000000006 138.775 L 305.2710000000001 142.443 L 308.9940000000001 138.775 L 312.8670000000001 142.796 L 316.3260000000001 138.99599999999998 L 318.93500000000006 141.67199999999997 L 321.1410000000001 139.15799999999996 L 325.4580000000001 143.61799999999997 L 321.69200000000006 148.21799999999996 L 319.2060000000001 145.71799999999996 L 316.8060000000001 148.37199999999996 L 312.8250000000001 144.32799999999995 L 311.1250000000001 146.18199999999996 L 310.3950000000001 145.50599999999997 L 312.1550000000001 143.56999999999996 L 308.97100000000006 140.23199999999997 L 306.0710000000001 143.06799999999998 L 309.5410000000001 147.678 Z M 318.213 142.466 L 317.255 143.56 L 320.777 143.56 L 319.67699999999996 142.43200000000002 L 321.16099999999994 140.70100000000002 L 324.0609999999999 143.65900000000002 L 321.6239999999999 146.65900000000002 L 319.1729999999999 144.16600000000003 L 316.7909999999999 146.818 L 313.59699999999987 143.536 L 316.34199999999987 140.531 Z" stroke-linecap="round" />
</g>
<g transform="matrix(13.4 0 0 13.4 540.45 1014.09)" clip-path="url(#CLIPPATH_41)"  >
<clipPath id="CLIPPATH_41" >
	<rect transform="matrix(1 0 0 1 0.01 -1.39)" id="Rectangle_482" x="-179.5" y="-82.2" rx="0" ry="0" width="359" height="164.4" />
</clipPath>
<path style="stroke: none; stroke-width: 1; stroke-dasharray: none; stroke-linecap: butt; stroke-dashoffset: 0; stroke-linejoin: miter; stroke-miterlimit: 4; fill: rgb(255,255,255); fill-rule: nonzero; opacity: 1;" vector-effect="non-scaling-stroke"  transform=" translate(-321.82, -149.51)" d="M 321.826 148.026 L 324.026 150.988 L 319.616 150.988 Z" stroke-linecap="round" />
</g>
<g transform="matrix(13.4 0 0 13.4 358.58 993.51)" clip-path="url(#CLIPPATH_42)"  >
<clipPath id="CLIPPATH_42" >
	<rect transform="matrix(1 0 0 1 13.57 0.14)" id="Rectangle_482" x="-179.5" y="-82.2" rx="0" ry="0" width="359" height="164.4" />
</clipPath>
<path style="stroke: none; stroke-width: 1; stroke-dasharray: none; stroke-linecap: butt; stroke-dashoffset: 0; stroke-linejoin: miter; stroke-miterlimit: 4; fill: rgb(255,255,255); fill-rule: nonzero; opacity: 1;" vector-effect="non-scaling-stroke"  transform=" translate(-294.94, -145.41)" d="M 295.558 144.2 L 296.516 145.29399999999998 L 292.993 145.29399999999998 L 294.093 144.166 L 292.61 142.435 L 289.71000000000004 145.393 L 292.146 148.393 L 294.6 145.9 L 296.982 148.552 L 300.17600000000004 145.26999999999998 L 297.43100000000004 142.265 Z" stroke-linecap="round" />
</g>
<g transform="matrix(13.4 0 0 13.4 480.29 1127.16)" clip-path="url(#CLIPPATH_43)"  >
<clipPath id="CLIPPATH_43" >
	<rect transform="matrix(1 0 0 1 4.49 -9.83)" id="Rectangle_482" x="-179.5" y="-82.2" rx="0" ry="0" width="359" height="164.4" />
</clipPath>
<path style="stroke: none; stroke-width: 1; stroke-dasharray: none; stroke-linecap: butt; stroke-dashoffset: 0; stroke-linejoin: miter; stroke-miterlimit: 4; fill: rgb(255,255,255); fill-rule: nonzero; opacity: 1;" vector-effect="non-scaling-stroke"  transform=" translate(-313.81, -162.33)" d="M 315.081 157.87 C 315.081 160.362 314.088 161.77 312.04400000000004 162.178 L 311.70700000000005 162.245 L 311.70700000000005 166.6 C 311.8411439181078 166.698218166801 311.99678662914687 166.76301215884152 312.16100000000006 166.789 C 312.3045349203969 166.7698635730503 312.43756990620216 166.70334608014764 312.53900000000004 166.6 L 312.53900000000004 162.9 C 314.15200000000004 162.48000000000002 315.91300000000007 161.258 315.91300000000007 157.864 Z" stroke-linecap="round" />
</g>
<g transform="matrix(13.4 0 0 13.4 284.53 1114.4)" clip-path="url(#CLIPPATH_44)"  >
<clipPath id="CLIPPATH_44" >
	<rect transform="matrix(1 0 0 1 19.09 -8.87)" id="Rectangle_482" x="-179.5" y="-82.2" rx="0" ry="0" width="359" height="164.4" />
</clipPath>
<path style="stroke: none; stroke-width: 1; stroke-dasharray: none; stroke-linecap: butt; stroke-dashoffset: 0; stroke-linejoin: miter; stroke-miterlimit: 4; fill: rgb(255,255,255); fill-rule: nonzero; opacity: 1;" vector-effect="non-scaling-stroke"  transform=" translate(-286.12, -162.32)" d="M 289.527 163.809 L 287.776 163.809 C 286.944 163.809 286.54 163.322 286.538 162.32399999999998 L 286.538 162.31099999999998 C 286.538 160.99699999999999 287.199 160.82799999999997 287.776 160.82799999999997 L 289.527 160.82799999999997 C 289.75675043584 160.82799997158895 289.94299994855726 160.64175043583995 289.94299994855726 160.41199999999998 C 289.94299994855726 160.18224956416 289.75675043584 159.996000028411 289.527 159.99599999999998 L 287.776 159.99599999999998 C 287.1336101358464 159.96272069863022 286.51567476213444 160.2462835454545 286.122 160.75499999999997 C 285.7280098898753 160.24612240767414 285.10970241469744 159.96256024836296 284.46700000000004 159.99599999999998 L 282.71700000000004 159.99599999999998 C 282.48724956416004 159.996000028411 282.30100005144277 160.18224956416 282.30100005144277 160.41199999999998 C 282.30100005144277 160.64175043583995 282.48724956416004 160.82799997158895 282.71700000000004 160.82799999999997 L 284.46700000000004 160.82799999999997 C 285.04400000000004 160.82799999999997 285.706 160.99699999999999 285.706 162.31799999999998 C 285.706 163.31799999999998 285.30600000000004 163.809 284.46700000000004 163.809 L 282.71700000000004 163.809 C 282.48780182882024 163.809 282.302 163.99480182882021 282.302 164.224 C 282.302 164.4531981711798 282.48780182882024 164.639 282.71700000000004 164.639 L 284.46700000000004 164.639 C 285.11953697290016 164.67470105177375 285.74462633912304 164.37254304997415 286.122 163.839 C 286.4991805359347 164.37223176823383 287.12381011332087 164.67435006443029 287.776 164.639 L 289.527 164.639 C 289.7561981711798 164.639 289.942 164.4531981711798 289.942 164.224 C 289.942 163.99480182882021 289.7561981711798 163.809 289.527 163.809" stroke-linecap="round" />
</g>
<g transform="matrix(13.4 0 0 13.4 540 711.04)" clip-path="url(#CLIPPATH_45)"  >
<clipPath id="CLIPPATH_45" >
	<rect transform="matrix(1 0 0 1 0 21.17)" id="Rectangle_482" x="-179.5" y="-82.2" rx="0" ry="0" width="359" height="164.4" />
</clipPath>
<path style="stroke: none; stroke-width: 1; stroke-dasharray: none; stroke-linecap: butt; stroke-dashoffset: 0; stroke-linejoin: miter; stroke-miterlimit: 4; fill: rgb(255,255,255); fill-rule: nonzero; opacity: 1;" vector-effect="non-scaling-stroke"  transform=" translate(-290.24, -81.56)" d="M 322.467 82.726 L 321.755 82.485 L 317.181 80.851 C 312.551 79.003 308.893 77.543 308.893 69.751 L 308.893 61.926 C 311.27299999999997 60.95 313.01899999999995 57.848 313.01899999999995 54.174 C 313.01899999999995 49.72 310.45599999999996 46.096000000000004 307.30299999999994 46.096000000000004 C 304.1499999999999 46.096000000000004 301.58899999999994 49.720000000000006 301.58899999999994 54.17400000000001 C 301.58899999999994 57.825 303.31199999999995 60.91400000000001 305.6689999999999 61.910000000000004 L 305.6689999999999 71.86800000000001 C 305.6689999999999 82.05000000000001 299.96899999999994 85.72800000000001 294.46899999999994 89.281 C 292.26899999999995 90.70500000000001 290.81999999999994 91.88900000000001 290.23799999999994 93.37100000000001 C 289.65599999999995 91.888 288.21099999999996 90.70500000000001 286.00499999999994 89.281 C 280.49699999999996 85.729 274.80499999999995 82.051 274.80499999999995 71.86800000000001 L 274.80499999999995 61.908 C 277.16099999999994 60.908 278.88599999999997 57.824 278.88599999999997 54.173 C 278.88599999999997 49.719 276.32099999999997 46.095 273.16999999999996 46.095 C 270.01899999999995 46.095 267.453 49.719 267.453 54.173 C 267.453 57.846000000000004 269.19899999999996 60.948 271.578 61.924 L 271.578 69.751 C 271.578 77.543 267.92199999999997 79.00200000000001 263.28999999999996 80.851 L 258.71999999999997 82.485 L 258.006 82.726 C 253.44899999999998 84.289 246.28399999999996 88.609 249.47599999999997 100.026 L 252 108.222 L 252.733 110.576 C 253.15344723765799 111.67266919758276 253.3143132615493 112.85178292589256 253.203 114.02099999999999 L 252.728 116.832 C 252.84732069770314 116.93648745535192 252.9954932465483 117.00238065942659 253.15300000000002 117.02099999999999 C 253.319417882936 116.99857663851367 253.47720001371255 116.93346567188317 253.61100000000002 116.832 L 254.031 114.097 C 254.15741879752397 112.82055344996205 253.98627407478747 111.53217597720167 253.531 110.333 L 253.01500000000001 108.673 L 264.574 108.673 C 264.9537255098571 108.6927420099224 265.3026456967534 108.4647107406182 265.437 108.10900000000001 C 266.266 105.715 269.48400000000004 96.417 269.648 95.95100000000001 L 285.129 95.95100000000001 C 285.4103061226339 97.07311307880825 286.44008185036233 97.84408825883028 287.596 97.798 C 288.7034788949979 97.86267228333725 289.7429918993574 97.26130437426963 290.239 96.269 C 290.7348075454536 97.26149304370793 291.77445752444544 97.86294019387007 292.88199999999995 97.798 C 294.03644081473607 97.84283748135317 295.06409189300035 97.07189047016139 295.34399999999994 95.95100000000001 L 310.7489999999999 95.95100000000001 C 310.91399999999993 96.417 314.1289999999999 105.715 314.9599999999999 108.10900000000001 C 315.09334499571975 108.46460685503823 315.44173181921605 108.69281843279889 315.8209999999999 108.673 L 327.4599999999999 108.673 L 326.9429999999999 110.333 C 326.4873710649235 111.53208630104379 326.3162152370206 112.82054737349715 326.4429999999999 114.097 L 326.8619999999999 116.832 C 326.9955928106352 116.93382691602886 327.15347423854007 116.99897885898524 327.31999999999994 117.02099999999999 C 327.47613354514925 117.00172382872618 327.6228399965547 116.93586273771517 327.74099999999993 116.832 L 327.2679999999999 114.02099999999999 C 327.1564080834202 112.85160917379129 327.31798793444506 111.67228165942568 327.7399999999999 110.576 L 328.4719999999999 108.222 L 331 100.027 C 334.193 88.60900000000001 327.026 84.288 322.47 82.727 M 268.291 54.173 C 268.291 50.183 270.478 46.936 273.167 46.936 C 275.85599999999994 46.936 278.042 50.183 278.042 54.173 C 278.042 58.163000000000004 275.854 61.409 273.167 61.409 C 270.47999999999996 61.409 268.291 58.163 268.291 54.173 M 270.026 95.117 C 268.446 93.04100000000001 266.62600000000003 91.099 262.647 91.099 C 258.937 91.099 254.935 93.71900000000001 254.935 97.953 C 254.93047087929327 99.44582178563924 255.53438398330107 100.8760474494767 256.60746839123885 101.91384668345907 C 257.6805527991766 102.95164591744143 259.13016360060317 103.50742016214784 260.622 103.453 C 261.9807982804601 103.48301311560587 263.22759874616077 102.70302606095225 263.795 101.468 C 264.2314976012995 100.62596508605817 264.0694034596468 99.59788299262591 263.39500000000004 98.931 C 263.11346215484303 98.62565593999558 262.69855932406796 98.48023380960649 262.288 98.54299999999999 C 262.4432072659358 98.66069376315622 262.5470741833747 98.83368590495958 262.57800000000003 99.026 C 262.61279078351697 99.3126135815246 262.52200725419596 99.60027705395133 262.329 99.815 C 262.06714957828035 100.14098811957311 261.68111656148164 100.34288519972043 261.264 100.372 C 260.3741174612593 100.36543063731425 259.6342035233074 99.68519415315394 259.553 98.799 C 259.565217141308 98.19408726322884 259.8235806477324 97.62031407066908 260.26841641810495 97.21020455475073 C 260.7132521884775 96.8000950388324 261.3060891426959 96.58911702181354 261.91 96.626 C 263.9503773291181 96.70945608532857 265.5408671194297 98.42411216648732 265.471 100.465 C 265.38146867210304 102.00311181797034 264.51764109097473 103.39073371703655 263.177 104.15 C 261.4399722485958 105.10464321401686 259.3195540833245 105.03094294469534 257.653 103.95800000000001 C 257.7241865256289 104.6495603616021 257.3940867183645 105.32102220484931 256.803 105.68700000000001 C 256.4314756588094 105.84639256881458 256.02015524924684 105.88860611381632 255.624 105.808 C 255.8339963073663 105.4684956442491 255.95155233182888 105.07997470709569 255.965 104.68100000000001 C 255.94587262260563 104.0050271662887 255.718907813362 103.35136851566702 255.315 102.80900000000001 C 254.23013430813313 101.49315842897974 253.60786533090928 99.85719888185703 253.544 98.153 C 253.544 93.093 258.301 89.69200000000001 262.744 89.69200000000001 C 266.51553276627925 89.63673564277896 269.9866940803255 91.74250617584127 271.68 95.11300000000001 Z M 285.13800000000003 95.117 L 272.6 95.117 L 272.642 95.095 C 270.8712027622363 91.2413545311044 266.9915015813796 88.79727222821109 262.751 88.864 C 257.90599999999995 88.864 252.71999999999997 92.599 252.71999999999997 98.15700000000001 C 252.78555521838902 100.03509494678387 253.46291982338514 101.84034711593111 254.64899999999997 103.29800000000002 C 255.27232758514606 104.21456631141334 255.13526478223022 105.448555880699 254.32599999999996 106.20600000000002 C 255.17676573201393 106.73257496145277 256.22768661503915 106.82173049765852 257.155 106.44600000000001 C 257.6696094620562 106.2002020419272 258.0520460559117 105.74295676320489 258.203 105.19300000000001 C 259.9515403372298 105.9856569879405 261.9790216492617 105.86172415058454 263.618 104.86200000000001 C 265.214037915068 103.96046227606566 266.2320959404466 102.29936054434874 266.311 100.468 C 266.37951501044466 97.96800663191257 264.4174750036533 95.88135720971148 261.918 95.796 C 261.09174591294726 95.75399234220902 260.2841529775824 96.05110871165228 259.68213011186737 96.61858463963577 C 259.08010724615235 97.18606056761925 258.7358380429607 97.9747070042283 258.729 98.802 C 258.8096942896102 100.14889627300455 259.9226998409555 101.20150278145339 261.272 101.20700000000001 C 262.0689454642081 101.21442391582245 262.79177116884244 100.74069871344058 263.103 100.007 C 263.25009665167755 100.38019986421727 263.2233390963112 100.79952374557573 263.03000000000003 101.15100000000001 C 262.59400274429214 102.07784269450808 261.6487460345714 102.65678786432872 260.62500000000006 102.62400000000001 C 259.35459362053837 102.67351645742586 258.1188525700526 102.20326951114792 257.20275809091765 101.32170547273013 C 256.2866636117827 100.44014143431234 255.76930743551017 99.22337082272932 255.77000000000007 97.95200000000001 C 255.77000000000007 94.23300000000002 259.34200000000004 91.93 262.6500000000001 91.93 C 265.20144946552057 91.81282532724856 267.62614129285106 93.04758691277412 269.0320000000001 95.18 C 268.8050000000001 95.83600000000001 265.7320000000001 104.71100000000001 264.8690000000001 107.209 C 264.7490000000001 107.553 264.62700000000007 107.837 264.0760000000001 107.837 L 252.754 107.837 L 251.166 102.68900000000001 L 251.173 102.68900000000001 C 250.62284129528896 100.49607996624218 250.31632008383824 98.24915204860527 250.25900000000001 95.989 C 250.25900000000001 91.11 252.359 87.65 258.6 85.774 C 261.3680892044614 85.00027599332891 264.0811761344685 84.04179225952885 266.721 82.905 C 267.84000000000003 82.359 271.182 80.58500000000001 272.58 78.389 C 274.389 85.37599999999999 280.549 89.583 282.49399999999997 90.738 C 283.9616111505875 91.56737540103936 285.37330176275435 92.49202273054193 286.71999999999997 93.50599999999999 C 286.53137059162725 93.52329431896068 286.3468902221093 93.57161060621537 286.174 93.649 C 285.6337833840768 93.96675036704622 285.2563688670682 94.5015423660507 285.138 95.117 M 287.59299999999996 96.964 C 286.7352986655627 97.02851774694113 285.9857280379179 96.39004419446515 285.91299999999995 95.533 C 285.9212529874438 95.06028435196318 286.17110017482 94.62475013106864 286.57499999999993 94.379 C 286.93496825432345 94.11159066935555 287.436874236044 94.1499692066154 287.75199999999995 94.46900000000001 C 287.917 93.358 288.18899999999996 93.15200000000002 282.91799999999995 90.02100000000002 C 276.92299999999994 86.46200000000002 273.28499999999997 80.27900000000001 272.93499999999995 75.64100000000002 C 272.49699999999996 78.26400000000002 268.86199999999997 80.93300000000002 266.35599999999994 82.15900000000002 C 263.7571011759184 83.27568345675242 261.08648490253614 84.21744818963516 258.36199999999997 84.97800000000004 C 252.25499999999997 86.81400000000002 249.88099999999997 90.16100000000003 249.50499999999997 94.66500000000002 C 249.51199999999997 88.06500000000003 254.02599999999995 84.96500000000002 258.27299999999997 83.51300000000002 L 258.986 83.27200000000002 L 263.597 81.62500000000001 C 268.128 79.81600000000002 272.409 78.10700000000001 272.409 69.75100000000002 L 272.409 62.169 C 272.92399805364 62.27796065938124 273.4564401937309 62.27454975521667 273.96999999999997 62.159 L 273.96999999999997 71.867 C 273.96999999999997 82.503 279.85699999999997 86.304 285.55199999999996 89.98 C 288.652 91.98 289.69399999999996 93.236 289.69399999999996 94.955 C 289.7247169541624 95.51309604167247 289.51007028060155 96.05675717401562 289.1063776594683 96.44334091739607 C 288.702685038335 96.82992466077654 288.15024376546086 97.02084155713857 287.59399999999994 96.966 M 302.4289999999999 54.17399999999999 C 302.4289999999999 50.18399999999999 304.61599999999993 46.93699999999999 307.3039999999999 46.93699999999999 C 309.9919999999999 46.93699999999999 312.1799999999999 50.18399999999999 312.1799999999999 54.17399999999999 C 312.1799999999999 58.163999999999994 309.9909999999999 61.40899999999999 307.3039999999999 61.40899999999999 C 304.61699999999996 61.40899999999999 302.4289999999999 58.163999999999994 302.4289999999999 54.17399999999999 M 310.4459999999999 95.118 L 308.7859999999999 95.118 C 310.4800148459168 91.74768677750396 313.95130534155373 89.64207350942208 317.7229999999999 89.69699999999999 C 322.1649999999999 89.69699999999999 326.9229999999999 93.097 326.9229999999999 98.15799999999999 C 326.86000775290626 99.86220059035495 326.2380255284097 101.49833010292889 325.1529999999999 102.814 C 324.7499221383643 103.35666871594808 324.52367586709437 104.01026905517227 324.5049999999999 104.68599999999999 C 324.51845651662336 105.0845510877736 324.6349038022229 105.47282354597073 324.8429999999999 105.81299999999999 C 324.4481575366226 105.89341365609629 324.03816802844966 105.8511934599355 323.6679999999999 105.692 C 323.07594989939486 105.3266385220427 322.7446698696494 104.6551459412338 322.8149999999999 103.963 C 321.1479621572903 105.03673283456529 319.02654117759164 105.11044127251355 317.2889999999999 104.15499999999999 C 315.950161557457 103.39447641144594 315.0880490382385 102.00719054536724 314.99899999999985 100.46999999999998 C 314.92800627410134 98.42944839107261 316.51791984826997 96.7144502985654 318.5579999999999 96.63099999999999 C 319.16224549793145 96.59355029552549 319.7556101193162 96.80427386275048 320.2008904575208 97.21444519590801 C 320.6461707957254 97.62461652906553 320.904808896396 98.19871785163548 320.91699999999986 98.80399999999999 C 320.83531077836705 99.6903512279123 320.09508375573483 100.37047804251539 319.20499999999987 100.37699999999998 C 318.7875426062899 100.34909295640698 318.401052860092 100.14695700463963 318.1399999999999 99.81999999999998 C 317.9466325772079 99.60544573408905 317.85547819763536 99.31776251215823 317.8899999999999 99.03099999999998 C 317.9207775940948 98.83789042852341 318.0259535234968 98.66451167800741 318.1829999999999 98.54799999999997 C 317.77086063542123 98.48421616100543 317.3539982739795 98.62966813604085 317.07099999999986 98.93599999999998 C 316.3995569825206 99.60486278634531 316.2403936091631 100.63233728560256 316.6779999999999 101.47299999999998 C 317.2460415121766 102.70886194884464 318.4941957878373 103.48895837113263 319.85399999999987 103.45799999999998 C 321.3454963066801 103.51186297422562 322.79458143168546 102.95584100265414 323.8672246151598 101.91810353403343 C 324.93986779863405 100.88036606541273 325.543508280996 99.45046176776346 325.5389999999999 97.95799999999998 C 325.5389999999999 93.72399999999999 321.5389999999999 91.10399999999998 317.82599999999985 91.10399999999998 C 313.85299999999984 91.10399999999998 312.02599999999984 93.04599999999998 310.44899999999984 95.12199999999999 M 329.30899999999986 102.695 L 327.71999999999986 107.84299999999999 L 316.3199999999999 107.84299999999999 C 315.7689999999999 107.84299999999999 315.6459999999999 107.55899999999998 315.5289999999999 107.21499999999999 C 314.6889999999999 104.79699999999998 311.77999999999986 96.38699999999999 311.3889999999999 95.25599999999999 C 312.79197525148606 93.08431610259755 315.2421356444429 91.82040489926993 317.8249999999999 91.93599999999999 C 321.13299999999987 91.93599999999999 324.70499999999987 94.23599999999999 324.70499999999987 97.958 C 324.70595426784683 99.22909881070007 324.188959237686 100.4457157632685 323.2732421004238 101.32727984018776 C 322.35752496316155 102.208843917107 321.12214490105765 102.67924456830133 319.85199999999986 102.63 C 318.8275383309219 102.6635982151186 317.8812873957807 102.08452566527934 317.4449999999999 101.157 C 317.25269723305496 100.80527858146895 317.22561261407253 100.38656501233572 317.37099999999987 100.01299999999999 C 317.68323465413573 100.7463130546846 318.40601003941333 101.21974671316337 319.20299999999986 101.213 C 320.55248864003755 101.20753491085095 321.66579850071787 100.15505448045151 321.74699999999984 98.80799999999999 C 321.73990299710573 97.98043366984074 321.3952732944616 97.19163173134275 320.7928723415454 96.62415530875855 C 320.19047138862913 96.05667888617435 319.3825159299557 95.75971742920989 318.55599999999987 95.80199999999999 C 316.05692006999357 95.88789341736626 314.09547649287055 97.9743834884771 314.1639999999999 100.47399999999999 C 314.2423355597169 102.30553414290193 315.26054936397435 103.96689004929168 316.85699999999986 104.868 C 318.49508922817887 105.8682316718531 320.5222446538387 105.99219037236915 322.26999999999987 105.199 C 322.42271886665003 105.74865346139528 322.8055374824403 106.2054836762383 323.3199999999999 106.452 C 324.24736311346925 106.8274016545063 325.298129853624 106.73825919510824 326.1489999999999 106.212 C 325.3404586851386 105.45409149671377 325.2038573792647 104.22043746726906 325.8269999999999 103.304 C 327.0112548829328 101.8456089555392 327.6871461344189 100.04054042364821 327.7519999999999 98.163 C 327.7519999999999 92.60499999999999 322.56799999999987 88.87 317.7229999999999 88.87 C 313.4828586533952 88.80367148048376 309.6036504023393 91.24769034927336 307.8329999999999 95.101 L 307.8739999999999 95.123 L 295.33 95.123 C 295.21447488207207 94.50672348113719 294.839188975992 93.9700281999178 294.3 93.65 C 294.1275149927377 93.57245551393996 293.94333691077304 93.52412988876391 293.755 93.507 C 295.1018150591769 92.4931889560797 296.5134945512643 91.56854891015024 297.981 90.739 C 299.926 89.584 306.081 85.37700000000001 307.894 78.39 C 309.294 80.59 312.635 82.359 313.754 82.906 C 316.3938905764481 84.04262183113279 319.1069659459079 85.00110148080405 321.87499999999994 85.775 C 328.118 87.65 330.217 91.111 330.217 95.99000000000001 C 330.1586843960716 98.25019881361894 329.8514974105502 100.49709051994311 329.301 102.69000000000001 Z M 322.10899999999987 84.98299999999999 C 319.38440453107006 84.22279866680445 316.71376508760795 83.28102576323683 314.1149999999999 82.16399999999999 C 311.6089999999999 80.939 307.9749999999999 78.26399999999998 307.5369999999999 75.64599999999999 C 307.18499999999995 80.28399999999999 303.54599999999994 86.46699999999998 297.5519999999999 90.02599999999998 C 292.2819999999999 93.15699999999998 292.5519999999999 93.36399999999998 292.7199999999999 94.47399999999999 C 293.03442427551 94.15779788426006 293.5329835275235 94.11951261746721 293.89199999999994 94.38399999999999 C 294.2973298053888 94.62875014876337 294.5484821240391 95.06458439797002 294.55699999999996 95.53799999999998 C 294.48478895380504 96.39489326265908 293.7355081577139 97.03350006385408 292.878 96.96899999999998 C 292.32167464337584 97.02419204584055 291.76902719176474 96.8333924366932 291.3652510138414 96.44672867773897 C 290.961474835918 96.06006491878473 290.7469364166396 95.51619272490406 290.77799999999996 94.95799999999998 C 290.77799999999996 93.23899999999999 291.823 91.98399999999998 294.91999999999996 89.98299999999999 C 300.614 86.3 306.5 82.5 306.5 71.867 L 306.5 62.16 C 306.76303896010626 62.21622445888276 307.0310354722105 62.24603907085435 307.3 62.248999999999995 C 307.5542400033547 62.246247587200784 307.8076698321968 62.21979982434937 308.057 62.169999999999995 L 308.057 69.75 C 308.057 78.106 312.339 79.814 316.87 81.624 L 321.48 83.271 L 322.195 83.512 C 326.443 84.969 330.96 88.07 330.96299999999997 94.67 C 330.58899999999994 90.163 328.21599999999995 86.81400000000001 322.106 84.977" stroke-linecap="round" />
</g>
<g transform="matrix(13.4 0 0 13.4 311.67 343.43)" clip-path="url(#CLIPPATH_46)"  >
<clipPath id="CLIPPATH_46" >
	<rect transform="matrix(1 0 0 1 17.07 48.62)" id="Rectangle_482" x="-179.5" y="-82.2" rx="0" ry="0" width="359" height="164.4" />
</clipPath>
<path style="stroke: none; stroke-width: 1; stroke-dasharray: none; stroke-linecap: butt; stroke-dashoffset: 0; stroke-linejoin: miter; stroke-miterlimit: 4; fill: rgb(255,255,255); fill-rule: nonzero; opacity: 1;" vector-effect="non-scaling-stroke"  transform=" translate(-292.32, -58.75)" d="M 292.949 58.754 C 292.949 59.985 292.666 60.983999999999995 292.317 60.983999999999995 C 291.968 60.983999999999995 291.685 59.983999999999995 291.685 58.754 C 291.685 57.524 291.968 56.524 292.317 56.524 C 292.666 56.524 292.949 57.524 292.949 58.754" stroke-linecap="round" />
</g>
<g transform="matrix(13.4 0 0 13.4 288.5 290.33)" clip-path="url(#CLIPPATH_47)"  >
<clipPath id="CLIPPATH_47" >
	<rect transform="matrix(1 0 0 1 18.79 52.57)" id="Rectangle_482" x="-179.5" y="-82.2" rx="0" ry="0" width="359" height="164.4" />
</clipPath>
<path style="stroke: none; stroke-width: 1; stroke-dasharray: none; stroke-linecap: butt; stroke-dashoffset: 0; stroke-linejoin: miter; stroke-miterlimit: 4; fill: rgb(255,255,255); fill-rule: nonzero; opacity: 1;" vector-effect="non-scaling-stroke"  transform=" translate(-288.75, -52.08)" d="M 289.321 50.485 C 288.4418014287085 51.15573847060608 287.8211640499152 52.10947832418717 287.564 53.185 C 287.49717354527047 53.40591389993232 287.6220861000677 53.63917354527048 287.843 53.706 C 288.06391389993234 53.77282645472953 288.2971735452705 53.64791389993232 288.36400000000003 53.427 C 288.5705640360111 52.545139647066456 289.0666305037914 51.757911384499565 289.773 51.191 C 289.9585685753869 51.063955663077316 290.0095729954331 50.81243330731252 289.88815289129695 50.62313693115381 C 289.7667327871609 50.4338405549951 289.51685377228 50.3753134310621 289.324 50.491" stroke-linecap="round" />
</g>
<g transform="matrix(13.4 0 0 13.4 309.8 410.68)" clip-path="url(#CLIPPATH_48)"  >
<clipPath id="CLIPPATH_48" >
	<rect transform="matrix(1 0 0 1 17.21 43.6)" id="Rectangle_482" x="-179.5" y="-82.2" rx="0" ry="0" width="359" height="164.4" />
</clipPath>
<path style="stroke: none; stroke-width: 1; stroke-dasharray: none; stroke-linecap: butt; stroke-dashoffset: 0; stroke-linejoin: miter; stroke-miterlimit: 4; fill: rgb(255,255,255); fill-rule: nonzero; opacity: 1;" vector-effect="non-scaling-stroke"  transform=" translate(-291.05, -68.87)" d="M 289.3 68.064 C 289.21268651099643 68.1315898266807 289.1558261186872 68.23111931916199 289.1419458440545 68.34066094599319 C 289.1280655694217 68.4502025728244 289.15830426990823 68.56076859418735 289.226 68.648 C 289.66559097717357 69.30655869881784 290.391168630576 69.71794193891157 291.182 69.75699999999999 C 291.8203437228757 69.73603286206546 292.42246189239273 69.45538150170867 292.849 68.97999999999999 C 293.00123415942215 68.81468160660377 292.99464684921617 68.55834163927132 292.8341226674832 68.40106037030063 C 292.67359848575023 68.24377910132993 292.4171774738716 68.2424240460139 292.255 68.398 C 291.9844688203011 68.71303250486827 291.5966924265535 68.9034874531488 291.182 68.925 C 290.6520428488572 68.87247836180744 290.1742262881137 68.5832155669573 289.882 68.13799999999999 C 289.8144101733193 68.05068651099641 289.714880680838 67.99382611868717 289.6053390540068 67.97994584405444 C 289.4957974271756 67.96606556942173 289.38523140581265 67.99630426990824 289.298 68.064" stroke-linecap="round" />
</g>
<g transform="matrix(13.4 0 0 13.4 346.96 362.13)" clip-path="url(#CLIPPATH_49)"  >
<clipPath id="CLIPPATH_49" >
	<rect transform="matrix(1 0 0 1 14.44 47.22)" id="Rectangle_482" x="-179.5" y="-82.2" rx="0" ry="0" width="359" height="164.4" />
</clipPath>
<path style="stroke: none; stroke-width: 1; stroke-dasharray: none; stroke-linecap: butt; stroke-dashoffset: 0; stroke-linejoin: miter; stroke-miterlimit: 4; fill: rgb(255,255,255); fill-rule: nonzero; opacity: 1;" vector-effect="non-scaling-stroke"  transform=" translate(-297.03, -61.33)" d="M 297.284 59.179 C 297.167033773737 59.18257302298017 297.05680278501075 59.23455417118712 296.97963673239445 59.322527263113265 C 296.9024706797782 59.41050035503941 296.8652988207018 59.52656569671076 296.877 59.643 L 296.877 59.936 C 296.8872627010482 60.95085087526243 296.7214736065853 61.95979593585105 296.387 62.91799999999999 C 296.33133750846616 63.058580642035956 296.3563341517407 63.218293863024066 296.4522872086233 63.33514522482138 C 296.54824026550585 63.4519965866187 296.700039678725 63.50758510413556 296.84876284140614 63.48033348471368 C 296.99748600408725 63.453081865291814 297.1197129692406 63.34728151499561 297.168 63.204 C 297.5360322619957 62.15416686171756 297.71908146754015 61.04842785299445 297.709 59.936 L 297.709 59.62 C 297.71291069291595 59.38089206739131 297.52307744637204 59.1834654909856 297.284 59.178" stroke-linecap="round" />
</g>
<g transform="matrix(13.4 0 0 13.4 274.81 356.25)" clip-path="url(#CLIPPATH_50)"  >
<clipPath id="CLIPPATH_50" >
	<rect transform="matrix(1 0 0 1 19.82 47.66)" id="Rectangle_482" x="-179.5" y="-82.2" rx="0" ry="0" width="359" height="164.4" />
</clipPath>
<path style="stroke: none; stroke-width: 1; stroke-dasharray: none; stroke-linecap: butt; stroke-dashoffset: 0; stroke-linejoin: miter; stroke-miterlimit: 4; fill: rgb(255,255,255); fill-rule: nonzero; opacity: 1;" vector-effect="non-scaling-stroke"  transform=" translate(-287.42, -60.74)" d="M 286.867 59.231 L 286.85400000000004 59.783 C 286.8492709348695 60.65724760745014 286.95920819605647 61.52834070755845 287.18100000000004 62.374 C 287.25553455465587 62.5759789745218 287.47186193509333 62.68771823684352 287.679711677711 62.63159880633676 C 287.8875614203286 62.57547937583 288.01825199051206 62.370045266840634 287.98100000000005 62.158 C 287.7788265478544 61.382616293123405 287.6779868495118 60.58430201457772 287.68100000000004 59.783 L 287.69300000000004 59.272 C 287.69988665328356 59.04209243954984 287.5226184446459 58.84842692161323 287.29300000000006 58.835 C 287.1830091960682 58.82984538201016 287.0756232589037 58.86947699342547 286.995351594561 58.94484944820738 C 286.91507993021827 59.020221902989285 286.86877309296796 59.124902755813196 286.8670000000001 59.235" stroke-linecap="round" />
</g>
<g transform="matrix(13.4 0 0 13.4 335.39 291.68)" clip-path="url(#CLIPPATH_51)"  >
<clipPath id="CLIPPATH_51" >
	<rect transform="matrix(1 0 0 1 15.3 52.47)" id="Rectangle_482" x="-179.5" y="-82.2" rx="0" ry="0" width="359" height="164.4" />
</clipPath>
<path style="stroke: none; stroke-width: 1; stroke-dasharray: none; stroke-linecap: butt; stroke-dashoffset: 0; stroke-linejoin: miter; stroke-miterlimit: 4; fill: rgb(255,255,255); fill-rule: nonzero; opacity: 1;" vector-effect="non-scaling-stroke"  transform=" translate(-295.05, -52.21)" d="M 293.912 50.663 C 293.84992787281357 50.75423092611079 293.82664501209723 50.866385613700835 293.84727467156887 50.97478509710627 C 293.86790433104045 51.083184580511706 293.93075616329975 51.178946852483556 294.022 51.241 C 294.7548069827111 51.863962826185464 295.2575990340482 52.71462500827962 295.45 53.657 C 295.5235742721682 53.861241936729876 295.74183323986955 53.974569451546934 295.9512190835358 53.91725007684329 C 296.16060492720214 53.85993070213964 296.29071093580876 53.65123827505829 296.25 53.437999999999995 C 296.01257094076965 52.30153930428388 295.3897664556014 51.282019313248306 294.487 50.55199999999999 C 294.39576907388926 50.48992787281358 294.2836143862992 50.466645012097246 294.17521490289374 50.48727467156887 C 294.06681541948836 50.50790433104049 293.9710531475165 50.57075616329975 293.90900000000005 50.66199999999999" stroke-linecap="round" />
</g>
<g transform="matrix(13.4 0 0 13.4 769.48 343.43)" clip-path="url(#CLIPPATH_52)"  >
<clipPath id="CLIPPATH_52" >
	<rect transform="matrix(1 0 0 1 -17.07 48.62)" id="Rectangle_482" x="-179.5" y="-82.2" rx="0" ry="0" width="359" height="164.4" />
</clipPath>
<path style="stroke: none; stroke-width: 1; stroke-dasharray: none; stroke-linecap: butt; stroke-dashoffset: 0; stroke-linejoin: miter; stroke-miterlimit: 4; fill: rgb(255,255,255); fill-rule: nonzero; opacity: 1;" vector-effect="non-scaling-stroke"  transform=" translate(-353.86, -58.75)" d="M 353.228 58.754 C 353.228 59.985 353.512 60.983999999999995 353.86 60.983999999999995 C 354.208 60.983999999999995 354.491 59.983999999999995 354.491 58.754 C 354.491 57.524 354.209 56.524 353.86 56.524 C 353.511 56.524 353.228 57.524 353.228 58.754" stroke-linecap="round" />
</g>
<g transform="matrix(13.4 0 0 13.4 792.41 290.25)" clip-path="url(#CLIPPATH_53)"  >
<clipPath id="CLIPPATH_53" >
	<rect transform="matrix(1 0 0 1 -18.78 52.58)" id="Rectangle_482" x="-179.5" y="-82.2" rx="0" ry="0" width="359" height="164.4" />
</clipPath>
<path style="stroke: none; stroke-width: 1; stroke-dasharray: none; stroke-linecap: butt; stroke-dashoffset: 0; stroke-linejoin: miter; stroke-miterlimit: 4; fill: rgb(255,255,255); fill-rule: nonzero; opacity: 1;" vector-effect="non-scaling-stroke"  transform=" translate(-356.49, -52.07)" d="M 355.931 50.485 C 356.81019230840286 51.15555951844541 357.4305567984404 52.10942291428905 357.68699999999995 53.185 C 357.73022913637885 53.32790623596327 357.6939349363718 53.48301951324437 357.59178907385785 53.59191016151378 C 357.4896432113439 53.700800809783196 357.3371640727507 53.746925749207634 357.1917890738579 53.71291016151378 C 357.046414074965 53.678894573819925 356.93022913637884 53.569906235963266 356.88699999999994 53.427 C 356.6799546915956 52.545093754430695 356.18356622588186 51.757913180433626 355.4769999999999 51.191 C 355.3469969537938 51.11301549293405 355.26970945315725 50.970484672183616 355.2752757998488 50.81898750669958 C 355.2808421465404 50.66749034121554 355.36838093887684 50.53101560928792 355.5037563784783 50.46278170482746 C 355.63913181807965 50.394547800367 355.80090791704396 50.4053592027891 355.92599999999993 50.491" stroke-linecap="round" />
</g>
<g transform="matrix(13.4 0 0 13.4 771.22 410.68)" clip-path="url(#CLIPPATH_54)"  >
<clipPath id="CLIPPATH_54" >
	<rect transform="matrix(1 0 0 1 -17.2 43.6)" id="Rectangle_482" x="-179.5" y="-82.2" rx="0" ry="0" width="359" height="164.4" />
</clipPath>
<path style="stroke: none; stroke-width: 1; stroke-dasharray: none; stroke-linecap: butt; stroke-dashoffset: 0; stroke-linejoin: miter; stroke-miterlimit: 4; fill: rgb(255,255,255); fill-rule: nonzero; opacity: 1;" vector-effect="non-scaling-stroke"  transform=" translate(-353.07, -68.87)" d="M 354.816 68.064 C 354.90354145905087 68.1314287624218 354.96057705282453 68.23098557749054 354.97446763534475 68.34060855305562 C 354.98835821786497 68.45023152862069 354.95795666788246 68.56086770779554 354.89 68.648 C 354.4504090228264 69.30655869881784 353.724831369424 69.71794193891157 352.93399999999997 69.75699999999999 C 352.2956010682673 69.7362640552952 351.69339655389774 69.45557244901735 351.267 68.97999999999999 C 351.11476584057783 68.81468160660377 351.1213531507838 68.55834163927132 351.2818773325168 68.40106037030063 C 351.44240151424975 68.24377910132993 351.69882252612837 68.2424240460139 351.861 68.398 C 352.13160435249864 68.71293799354767 352.51933763735155 68.90337176905327 352.93399999999997 68.925 C 353.4638170824491 68.87205819544862 353.94146636277156 68.58289666959188 354.234 68.13799999999999 C 354.3014092862317 68.05075125811872 354.400767025737 67.9939132330392 354.51014530260073 67.98002988400332 C 354.6195235794645 67.96614653496744 354.72993063257394 67.99635918328283 354.817 68.064" stroke-linecap="round" />
</g>
<g transform="matrix(13.4 0 0 13.4 734.11 362.06)" clip-path="url(#CLIPPATH_55)"  >
<clipPath id="CLIPPATH_55" >
	<rect transform="matrix(1 0 0 1 -14.43 47.22)" id="Rectangle_482" x="-179.5" y="-82.2" rx="0" ry="0" width="359" height="164.4" />
</clipPath>
<path style="stroke: none; stroke-width: 1; stroke-dasharray: none; stroke-linecap: butt; stroke-dashoffset: 0; stroke-linejoin: miter; stroke-miterlimit: 4; fill: rgb(255,255,255); fill-rule: nonzero; opacity: 1;" vector-effect="non-scaling-stroke"  transform=" translate(-349.07, -61.33)" d="M 348.826 59.179 C 348.942966226263 59.18257302298017 349.05319721498927 59.23455417118712 349.13036326760556 59.322527263113265 C 349.2075293202218 59.41050035503941 349.2447011792982 59.52656569671076 349.233 59.643 L 349.233 59.936 C 349.22243619547737 60.95079080731986 349.387886111531 61.95973078619889 349.722 62.918 C 349.8009767192258 63.133391052434 349.690391052434 63.37202328077418 349.47499999999997 63.450999999999986 C 349.259608947566 63.52997671922579 349.0209767192258 63.419391052434 348.942 63.204 C 348.5733954296698 62.154313452507495 348.39032951563775 61.04847351340091 348.401 59.936 L 348.401 59.62 C 348.39708930708406 59.38089206739131 348.58692255362797 59.1834654909856 348.826 59.178" stroke-linecap="round" />
</g>
<g transform="matrix(13.4 0 0 13.4 806.31 356.25)" clip-path="url(#CLIPPATH_56)"  >
<clipPath id="CLIPPATH_56" >
	<rect transform="matrix(1 0 0 1 -19.81 47.66)" id="Rectangle_482" x="-179.5" y="-82.2" rx="0" ry="0" width="359" height="164.4" />
</clipPath>
<path style="stroke: none; stroke-width: 1; stroke-dasharray: none; stroke-linecap: butt; stroke-dashoffset: 0; stroke-linejoin: miter; stroke-miterlimit: 4; fill: rgb(255,255,255); fill-rule: nonzero; opacity: 1;" vector-effect="non-scaling-stroke"  transform=" translate(-358.85, -60.74)" d="M 359.406 59.231 L 359.419 59.783 C 359.42347622634003 60.657232383662176 359.31354311087233 61.528292634967094 359.092 62.373999999999995 C 359.01746544534416 62.5759789745218 358.8011380649067 62.68771823684352 358.593288322289 62.63159880633676 C 358.3854385796714 62.57547937583 358.25474800948797 62.370045266840634 358.292 62.158 C 358.4938976207453 61.38256316855792 358.594732772838 60.58428488115788 358.592 59.783 L 358.579 59.272 C 358.5726432000716 59.04228958714017 358.7496246874431 58.84893731218678 358.979 58.835 C 359.0890120094086 58.83012930794216 359.1963402393311 58.86982589767179 359.2767060560766 58.945110035138256 C 359.357071872822 59.02039417260473 359.4036845965398 59.12490456520794 359.406 59.235" stroke-linecap="round" />
</g>
<g transform="matrix(13.4 0 0 13.4 745.6 292.1)" clip-path="url(#CLIPPATH_57)"  >
<clipPath id="CLIPPATH_57" >
	<rect transform="matrix(1 0 0 1 -15.29 52.44)" id="Rectangle_482" x="-179.5" y="-82.2" rx="0" ry="0" width="359" height="164.4" />
</clipPath>
<path style="stroke: none; stroke-width: 1; stroke-dasharray: none; stroke-linecap: butt; stroke-dashoffset: 0; stroke-linejoin: miter; stroke-miterlimit: 4; fill: rgb(255,255,255); fill-rule: nonzero; opacity: 1;" vector-effect="non-scaling-stroke"  transform=" translate(-350.19, -52.24)" d="M 351.33 50.663 C 351.45945909805755 50.85272062363883 351.4106656229169 51.111460335852875 351.221 51.241 C 350.4881930172889 51.863962826185464 349.9854009659518 52.71462500827962 349.793 53.657 C 349.7636638908938 53.81065849933105 349.6506051083925 53.934869210162965 349.500375588336 53.97848839192699 C 349.3501460682795 54.022107573691 349.18814638920014 53.977760161543024 349.08107989337464 53.86370619543131 C 348.97401339754913 53.7496522293196 348.93998272508696 53.585175780191435 348.993 53.437999999999995 C 349.23066151157485 52.30163140085009 349.8534215954978 51.28218409387243 350.756 50.55199999999999 C 350.84707325963336 50.48997941580356 350.95907243832676 50.46672300287657 351.0673088291453 50.487357323483224 C 351.1755452199638 50.50799164408987 351.27113259216753 50.57082261611336 351.33299999999997 50.66199999999999" stroke-linecap="round" />
</g>
<g transform="matrix(13.4 0 0 13.4 540.54 491.82)" clip-path="url(#CLIPPATH_58)"  >
<clipPath id="CLIPPATH_58" >
	<rect transform="matrix(1 0 0 1 0 37.54)" id="Rectangle_482" x="-179.5" y="-82.2" rx="0" ry="0" width="359" height="164.4" />
</clipPath>
<path style="stroke: none; stroke-width: 1; stroke-dasharray: none; stroke-linecap: butt; stroke-dashoffset: 0; stroke-linejoin: miter; stroke-miterlimit: 4; fill: rgb(255,255,255); fill-rule: nonzero; opacity: 1;" vector-effect="non-scaling-stroke"  transform=" translate(-321.89, -71.97)" d="M 322.761 65.405 C 322.87009590033585 65.35653888377274 322.9751033463144 65.29935330013474 323.07500000000005 65.234 C 323.8825036544095 64.69329542368976 324.22243803128134 63.67511979250054 323.90173738912625 62.75774599254287 C 323.58103674697117 61.84037219258521 322.68078641509504 61.25574723888942 321.7122836016505 61.33590889479408 C 320.74378078820587 61.41607055069875 319.95189986897867 62.14075089836291 319.78638964033564 63.09836770843988 C 319.6208794116926 64.05598451851685 320.12358715932316 65.0044158112308 321.00900000000007 65.405 C 320.4676277668823 65.82479775381903 320.1502782177203 66.47093619635696 320.14900000000006 67.156 L 320.14900000000006 80.54 L 320.14900000000006 80.54 C 320.0237129004147 81.23497484808907 320.3247289413144 81.93773314653514 320.9142362605936 82.32653646096948 C 321.5037435798729 82.7153397754038 322.2682564201272 82.7153397754038 322.8577637394065 82.32653646096948 C 323.4472710586857 81.93773314653514 323.7482870995854 81.23497484808907 323.62300000000005 80.54 L 323.62300000000005 80.54 L 323.62300000000005 67.157 C 323.6213312820435 66.47179950955173 323.3036280414295 65.82569222230998 322.76200000000006 65.40599999999999 M 320.4220000000001 63.47099999999999 C 320.4214479040616 62.66245540365783 321.0764551765237 62.00655290490175 321.88499977278 62.00600068321542 C 322.6935443690363 62.00544846152909 323.3494469696615 62.66045563198282 323.3499993170957 63.46900022815322 C 323.35055166452986 64.27754482432361 322.6955445960845 64.93344752681797 321.88700000000006 64.93399999999998 C 321.0789110705112 64.93345047122614 320.423653474371 64.27908742470527 320.4220000000001 63.47099999999998 M 320.8140000000001 67.15799999999999 C 320.6856046185176 66.70375049436413 320.8574445026955 66.21789413421013 321.2428848178084 65.94538037154456 C 321.62832513292125 65.67286660887899 322.1436748670789 65.67286660887899 322.5291151821918 65.94538037154456 C 322.91455549730466 66.21789413421013 323.0863953814826 66.70375049436413 322.9580000000001 67.15799999999999 L 322.9580000000001 80.54 C 322.9580000000001 81.176 322.4580000000001 81.956 321.88700000000006 81.956 C 321.48919299571304 81.90381408435779 321.1506768756256 81.64065127009775 321.00200000000007 81.268 C 320.9870000000001 81.238 320.97600000000006 81.205 320.96200000000005 81.174 C 320.86992617673707 80.97497811514708 320.81955938828935 80.7592176835534 320.814 80.54 Z" stroke-linecap="round" />
</g>
<g transform="matrix(13.4 0 0 13.4 600.75 1127.16)" clip-path="url(#CLIPPATH_59)"  >
<clipPath id="CLIPPATH_59" >
	<rect transform="matrix(1 0 0 1 -4.49 -9.83)" id="Rectangle_482" x="-179.5" y="-82.2" rx="0" ry="0" width="359" height="164.4" />
</clipPath>
<path style="stroke: none; stroke-width: 1; stroke-dasharray: none; stroke-linecap: butt; stroke-dashoffset: 0; stroke-linejoin: miter; stroke-miterlimit: 4; fill: rgb(255,255,255); fill-rule: nonzero; opacity: 1;" vector-effect="non-scaling-stroke"  transform=" translate(-330, -162.33)" d="M 328.731 157.87 C 328.731 160.362 329.724 161.77 331.769 162.178 L 332.104 162.245 L 332.104 166.6 C 331.96997112206253 166.69842210948275 331.814277036635 166.76323748865855 331.65 166.789 C 331.50682052290773 166.76965038762432 331.3741688369954 166.70314861405024 331.27299999999997 166.6 L 331.27299999999997 162.9 C 329.65999999999997 162.48000000000002 327.89799999999997 161.258 327.89799999999997 157.864 Z" stroke-linecap="round" />
</g>
<g transform="matrix(13.4 0 0 13.4 796.42 1114.37)" clip-path="url(#CLIPPATH_60)"  >
<clipPath id="CLIPPATH_60" >
	<rect transform="matrix(1 0 0 1 -19.08 -8.87)" id="Rectangle_482" x="-179.5" y="-82.2" rx="0" ry="0" width="359" height="164.4" />
</clipPath>
<path style="stroke: none; stroke-width: 1; stroke-dasharray: none; stroke-linecap: butt; stroke-dashoffset: 0; stroke-linejoin: miter; stroke-miterlimit: 4; fill: rgb(255,255,255); fill-rule: nonzero; opacity: 1;" vector-effect="non-scaling-stroke"  transform=" translate(-354.93, -162.32)" d="M 358.339 163.809 L 356.588 163.809 C 355.75600000000003 163.809 355.35 163.321 355.35 162.31799999999998 C 355.35 160.99699999999999 356.011 160.82799999999997 356.588 160.82799999999997 L 358.339 160.82799999999997 C 358.56875043584 160.82799997158895 358.75499994855727 160.64175043583995 358.75499994855727 160.41199999999998 C 358.75499994855727 160.18224956416 358.56875043584 159.996000028411 358.339 159.99599999999998 L 356.588 159.99599999999998 C 356.1742294127509 160.47793336072934 355.57068962763606 160.7552231500338 354.93550000000005 160.7552231500338 C 354.300310372364 160.7552231500338 353.69677058724915 160.47793336072934 353.283 159.99599999999998 L 351.53 159.99599999999998 C 351.30024956415997 159.996000028411 351.1140000514427 160.18224956416 351.1140000514427 160.41199999999998 C 351.1140000514427 160.64175043583995 351.30024956415997 160.82799997158895 351.53 160.82799999999997 L 353.28299999999996 160.82799999999997 C 353.85999999999996 160.82799999999997 354.51899999999995 160.99699999999999 354.51899999999995 162.31799999999998 C 354.51899999999995 163.31799999999998 354.11899999999997 163.809 353.28299999999996 163.809 L 351.53 163.809 C 351.30080182882017 163.809 351.11499999999995 163.99480182882021 351.11499999999995 164.224 C 351.11499999999995 164.4531981711798 351.30080182882017 164.639 351.53 164.639 L 353.28299999999996 164.639 C 353.6810797148168 164.1313613909893 354.2903919340862 163.83485637707273 354.93549999999993 163.83485637707273 C 355.58060806591374 163.83485637707273 356.1899202851831 164.1313613909893 356.58799999999997 164.639 L 358.33899999999994 164.639 C 358.56819817117974 164.639 358.75399999999996 164.4531981711798 358.75399999999996 164.224 C 358.75399999999996 163.99480182882021 358.56819817117974 163.809 358.33899999999994 163.809" stroke-linecap="round" />
</g>
<g transform="matrix(13.4 0 0 13.4 540.1 290.69)" clip-path="url(#CLIPPATH_61)"  >
<clipPath id="CLIPPATH_61" >
	<rect transform="matrix(1 0 0 1 0 52.52)" id="Rectangle_482" x="-179.5" y="-82.2" rx="0" ry="0" width="359" height="164.4" />
</clipPath>
<path style="stroke: none; stroke-width: 1; stroke-dasharray: none; stroke-linecap: butt; stroke-dashoffset: 0; stroke-linejoin: miter; stroke-miterlimit: 4; fill: rgb(255,255,255); fill-rule: nonzero; opacity: 1;" vector-effect="non-scaling-stroke"  transform=" translate(-299.19, -29.68)" d="M 328.752 58.452 C 327.278 57.366 326.794 55.687999999999995 326.794 52.062999999999995 L 326.794 23.427 C 326.919 23.375 327.053 23.326999999999998 327.17499999999995 23.273 C 327.81358808955486 23.0325506918168 328.3271262752366 22.54303927032109 328.5978753816627 21.916696281778346 C 328.86862448808876 21.290353293235604 328.873361370022 20.580902476140004 328.61099999999993 19.951 C 328.335814842009 19.136633056780784 327.64059070117867 18.535585754410995 326.79499999999996 18.381 L 326.79499999999996 0 L 326.21999999999997 0.234 C 318.80499999999995 3.259 309.205 4.924 299.191 4.924 C 289.17699999999996 4.924 279.578 3.259 272.163 0.234 L 271.589 0 L 271.589 18.38 C 270.7428375521766 18.533854265581418 270.0469879076533 19.135111250667585 269.772 19.95 C 269.50910162333315 20.579977429507405 269.5136880967376 21.289778567861134 269.7847055450105 21.916306030048116 C 270.0557229932835 22.542833492235097 270.56986769408456 23.03221465082697 271.209 23.272 C 271.331 23.323999999999998 271.464 23.372 271.589 23.426 L 271.589 52.063 C 271.589 55.688 271.104 57.363 269.629 58.452000000000005 C 268.68 59.15200000000001 268.45000000000005 59.36300000000001 269.40200000000004 59.36300000000001 C 272.92100000000005 59.36300000000001 274.94100000000003 56.54200000000001 274.94100000000003 51.51200000000001 L 274.94100000000003 24.61 C 280.78557970043653 26.295960402668236 286.790672804457 27.365126390379658 292.858 27.80000000000001 C 294.12681214649575 29.40083976323295 295.1475684625807 31.183455152749755 295.886 33.08799999999999 C 295.9819663540468 33.28009361795791 296.1876025070532 33.39189579823325 296.401 33.368 L 301.981 33.368 C 302.19427983849647 33.39129668815104 302.39959478802666 33.279669142775404 302.496 33.088 C 303.2336877083562 31.18310054759078 304.2545055377384 29.400377733266733 305.524 27.800000000000008 C 311.5913860907087 27.363761467915932 317.59644105250015 26.293596792300594 323.44100000000003 24.607000000000003 L 323.44100000000003 51.507 C 323.44100000000003 56.537 325.461 59.358 328.97900000000004 59.358 C 329.93100000000004 59.358 329.70200000000006 59.147 328.75200000000007 58.446999999999996 M 326.20700000000005 19.255999999999993 C 326.50329206145307 19.155057652797833 326.82893935857055 19.18904777471918 327.09800000000007 19.348999999999993 C 326.3948260011989 20.025244219185808 325.77020755824225 20.778677636414898 325.23600000000005 21.595 C 324.734744872327 22.471068057867786 324.0455517594975 23.225150512341283 323.2180000000001 23.80299999999999 C 322.02900000000005 24.16899999999999 320.7610000000001 24.51599999999999 319.41800000000006 24.83499999999999 C 320.14021046324297 24.131550813427317 320.8137633289509 23.379817704378254 321.4340000000001 22.584999999999994 C 322.14168877855013 21.635762290388826 322.9593925552021 20.77374944209563 323.87000000000006 20.01699999999999 Q 325.08400000000006 19.63899999999999 326.20700000000005 19.25499999999999 M 281.3 21.791 C 280.57651819705484 22.077265656639256 279.87468744854243 22.415481236398577 279.2 22.803000000000004 C 278.23123951122363 23.467559411924146 277.1142846274479 23.884400244664306 275.947 24.017 L 275.947 24.044 Q 274.447 23.607 273.132 23.128 C 274.03188975248435 22.892882799479302 274.9013934675703 22.553940787809374 275.723 22.118 C 276.5924050292332 21.595648692643262 277.5660870430663 21.270974220288657 278.575 21.166999999999998 Q 279.875 21.494 281.30199999999996 21.791999999999998 M 279.414 23.191999999999997 C 280.32072992246395 22.59368626507028 281.3426305568069 22.191738682228717 282.414 22.012 Q 283.89799999999997 22.298 285.519 22.541999999999998 C 284.7225234912193 22.866710862351635 283.9490696605896 23.245252197169542 283.204 23.674999999999997 C 282.1990571659448 24.342436512648856 281.073247281052 24.80682459733459 279.89 25.041999999999994 L 279.89 25.049999999999997 C 278.873 24.820999999999998 277.89 24.58 276.947 24.323999999999998 C 277.8051030974655 24.030873240503258 278.63131767810785 23.65160523349306 279.413 23.192 M 283.413 24.062999999999995 C 284.3968293692859 23.420696428143117 285.48822508329624 22.96069786215116 286.635 22.704999999999995 C 287.635 22.839999999999996 288.694 22.956999999999994 289.782 23.060999999999996 C 289.00795257731323 23.43579846303574 288.257551802839 23.857585814242253 287.53499999999997 24.32400000000001 C 286.544517492026 25.064538623172183 285.41715430544286 25.601540080754734 284.21799999999996 25.903999999999996 Q 282.518 25.613999999999997 280.893 25.269999999999996 C 281.764842870288 24.938982805406955 282.6074506470164 24.535574715397253 283.412 24.064 M 287.768 24.701999999999998 C 288.71195597716815 24.028464631287818 289.7560739701773 23.507755496441952 290.86199999999997 23.159 Q 292.436 23.29 294.12999999999994 23.371 C 293.36789134477857 23.786927535710355 292.63094802629945 24.247391892838923 291.92299999999994 24.750000000000004 C 290.9455803263199 25.55494719083643 289.81813833040326 26.157926419282642 288.60599999999994 26.524 L 288.60599999999994 26.542 Q 286.93299999999994 26.336000000000002 285.29099999999994 26.077 C 286.149333884809 25.681038525636936 286.97666782260893 25.221074283854005 287.76599999999996 24.701 M 292.17299999999994 25.115000000000002 C 293.0877863995631 24.401429978142275 294.10398965809947 23.82844638294763 295.18799999999993 23.415000000000006 C 296.33399999999995 23.457000000000004 297.5199999999999 23.483000000000004 298.75299999999993 23.488000000000003 C 297.9244108227168 23.97286713318348 297.12838243811035 24.511347097927786 296.37 25.10000000000001 C 295.4246057964363 25.90278776612995 294.35365660251756 26.54468160475632 293.2 27 C 292.017 26.912 290.828 26.8 289.64 26.67 C 290.5245795656659 26.22179853386681 291.3716480261386 25.70312376790028 292.173 25.119000000000007 M 296.629 25.455000000000002 C 297.6087636087538 24.621358980638128 298.7202317352819 23.956302953575992 299.918 23.487000000000002 C 301.156 23.479000000000003 302.355 23.453000000000003 303.50600000000003 23.407000000000004 C 302.7037556579603 23.938628268994186 301.93742767332117 24.522560839678242 301.21200000000005 25.155000000000005 C 300.32704057601666 25.997356679068965 299.3145605841804 26.694617900113485 298.21200000000005 27.221000000000004 C 296.90600000000006 27.204000000000004 295.57200000000006 27.152000000000005 294.21900000000005 27.067000000000004 C 295.05979803655725 26.587022553006676 295.86548696838844 26.048002956555553 296.63000000000005 25.454000000000008 M 301.49600000000004 25.496000000000006 C 302.418103847441 24.617332073477733 303.4760567110765 23.89334517924391 304.629 23.352000000000007 C 305.877 23.287000000000003 307.081 23.204000000000004 308.22900000000004 23.099000000000004 C 307.47731375083185 23.64589627002706 306.75902983135603 24.237286703031074 306.07800000000003 24.870000000000008 C 304.901 25.913000000000004 303.687 26.991000000000003 302.88500000000005 27.142000000000003 C 301.63700000000006 27.201000000000004 300.40700000000004 27.233000000000004 299.20900000000006 27.233000000000004 C 300.0121638525764 26.70949196593885 300.7777011155423 26.13041030870622 301.5 25.500000000000004 M 306.377 25.205 C 307.2515550834938 24.300432205244277 308.27427898943506 23.551990405030004 309.401 22.992 L 309.401 22.991999999999997 Q 311.39300000000003 22.782999999999998 313.196 22.505 C 312.4782004740031 23.0835199633496 311.79219958278696 23.700420034866568 311.141 24.352999999999998 C 310.2882871276116 25.26912155126834 309.3178239650236 26.06808914458406 308.255 26.729 C 306.86 26.878 305.467 26.994999999999997 304.084 27.08 C 304.8905009890622 26.509820969166782 305.6569645543908 25.885022857935507 306.378 25.209999999999994 M 311.45 24.671999999999997 C 312.2946264504643 23.754595624441215 313.2657298189352 22.96229110779346 314.334 22.318999999999996 Q 316.286 21.987999999999996 318.034 21.594999999999995 C 317.3645411458181 22.205778280885763 316.72766188596216 22.851336188936827 316.126 23.529000000000007 C 315.338944817749 24.466952191863374 314.4414404427564 25.306368928669034 313.453 26.028999999999996 C 312.08 26.251999999999995 310.68199999999996 26.447999999999997 309.27299999999997 26.613999999999997 C 310.03606850955174 26.01096445343759 310.76236663197284 25.362805991083853 311.448 24.672999999999995 M 316.448 23.831 C 317.22936911740584 22.895031483272376 318.1238712956387 22.059647736646312 319.111 21.344000000000005 Q 321.075 20.871000000000002 322.811 20.353 C 322.2031123667062 20.97907912433654 321.62737267579377 21.63558925304653 321.08599999999996 22.32 C 320.3240080198346 23.358355569360253 319.4229084357007 24.28704670162664 318.40799999999996 25.08 C 317.11899999999997 25.368 315.78299999999996 25.633999999999997 314.40799999999996 25.872 C 315.1264552985733 25.232907618914854 315.8063189668679 24.551708265613833 316.44399999999996 23.832000000000008 M 270.544 20.26 C 270.7289066463467 19.54419991009589 271.4507402643425 19.106308219277263 272.171 19.273000000000003 C 272.71 19.457000000000004 273.271 19.640000000000004 273.83799999999997 19.822000000000003 C 273.2735213253153 19.98705515467727 272.7220181369966 20.193618167029364 272.188 20.440000000000005 C 271.6352776410228 20.729011161592823 271.0368324289087 20.920486565807956 270.419 21.006 C 270.4111001882641 20.75128791057485 270.45322848281654 20.49749891032742 270.543 20.259 M 270.487 21.453 C 271.1426676644231 21.35629638639662 271.7776734324395 21.151161473578128 272.36600000000004 20.846 C 273.12431715312954 20.439160942210485 273.95902448656403 20.194640393289248 274.81700000000006 20.128 Q 276.10300000000007 20.528 277.50700000000006 20.9 C 276.8258150007453 21.126658410607085 276.1623366607162 21.40341411113307 275.52200000000005 21.728 C 274.30600000000004 22.310999999999996 273.047 22.913999999999998 272.14900000000006 22.741999999999997 L 272.14900000000006 22.762999999999998 C 271.94900000000007 22.680999999999997 271.7300000000001 22.601 271.53600000000006 22.517999999999997 C 271.0448933743668 22.339420337411322 270.66129107929805 21.94772671876493 270.49300000000005 21.452999999999996 M 326.84800000000007 22.517999999999997 C 326.09400000000005 22.839999999999996 325.26200000000006 23.15 324.3760000000001 23.449999999999996 C 324.8158080114645 22.948061872950127 325.2245680731591 22.419746172295817 325.6000000000001 21.868 C 326.12677990993205 21.056324282877938 326.74850589733524 20.3103873800648 327.45200000000006 19.645999999999994 C 327.61771560343874 19.823943171578147 327.74773459431356 20.03204145201223 327.83500000000004 20.258999999999993 C 328.02322677057975 20.687571264497944 328.0236530502388 21.175329300578365 327.8361756725275 21.60422891443072 C 327.6486982948161 22.03312852828308 327.2904019333835 22.364084417880996 326.848 22.516999999999992 M 272.421 1.2 C 279.85699999999997 4.127 289.31399999999996 5.758 299.192 5.758 C 309.07000000000005 5.758 318.527 4.127 325.962 1.2000000000000002 L 325.962 18.468 C 325.954 18.468 325.94599999999997 18.468 325.938 18.468 C 319.84499999999997 20.541 311.899 22.657 299.192 22.657 C 286.485 22.657 278.538 20.541 272.443 18.468 C 272.436 18.468 272.429 18.468 272.421 18.468 Z M 298.764 28.061 L 299.053 30.244 L 299.327 30.244 L 299.61899999999997 28.061 Q 300.61199999999997 28.055 301.628 28.022 C 301.15420161555124 28.839939604090244 300.73818672033997 29.690013414064104 300.383 30.566000000000003 C 300.28299999999996 30.816 300.248 30.820999999999998 300.065 30.820999999999998 L 298.317 30.820999999999998 C 298.133 30.820999999999998 298.096 30.820999999999998 298 30.566 C 297.64406519501523 29.690347832583104 297.2280753193259 28.84032514683721 296.755 28.02199999999999 Q 297.771 28.054 298.765 28.061 M 274.108 51.512 C 274.108 55.133 273.021 57.399 271.074 58.212 C 272.17400000000004 56.889 272.42 54.945 272.42 52.065000000000005 L 272.42 23.755 C 272.956 23.955 273.52000000000004 24.154999999999998 274.108 24.346999999999998 Z M 301.963 32.234 C 301.889 32.428000000000004 301.80600000000004 32.534 301.668 32.534 L 296.712 32.534 C 296.574 32.534 296.491 32.424 296.417 32.234 C 295.7628160140437 30.699901511346237 294.9440190699352 29.24135658633725 293.97499999999997 27.883999999999993 Q 294.96799999999996 27.949 295.948 27.990000000000002 C 296.5791935608127 28.978652394384866 297.09838962832004 30.03448522417373 297.496 31.137999999999995 C 297.53979590759167 31.35305014959291 297.7372393401116 31.50156194883618 297.95599999999996 31.484 L 300.42199999999997 31.484 C 300.6414916967961 31.502625600048038 300.8401236675484 31.353866591649076 300.88399999999996 31.138 C 301.2816485466935 30.03450142888842 301.80084258080797 28.978672734190468 302.43199999999996 27.990000000000006 Q 303.412 27.948 304.40599999999995 27.884 C 303.43701237230863 29.241551467788724 302.6179029804816 30.70005570620363 301.96299999999997 32.23400000000001 M 324.272 51.512 L 324.272 24.348 Q 325.155 24.06 325.961 23.756 L 325.961 52.063 C 325.961 54.943000000000005 326.21000000000004 56.887 327.308 58.21 C 325.361 57.398 324.272 55.132 324.272 51.51" stroke-linecap="round" />
</g>
</svg>